<?xml version="1.0" encoding="utf-8"?>
<!-- Generator: Adobe Illustrator 16.0.0, SVG Export Plug-In . SVG Version: 6.00 Build 0)  -->
<!DOCTYPE svg PUBLIC "-//W3C//DTD SVG 1.1//EN" "http://www.w3.org/Graphics/SVG/1.1/DTD/svg11.dtd">
<svg version="1.1" id="Layer_1" xmlns="http://www.w3.org/2000/svg" xmlns:xlink="http://www.w3.org/1999/xlink" x="0px" y="0px"
	 width="283.7px" height="207.7px" viewBox="0 0 283.7 207.7" style="enable-background:new 0 0 283.7 207.7;" xml:space="preserve"
	>
<style type="text/css">
<![CDATA[
	.st0{clip-path:url(#SVGID_2_);}
	.st1{clip-path:url(#SVGID_2_);fill:#C10C19;}
	.st2{clip-path:url(#SVGID_2_);fill:#6F6F6F;}
]]>
</style>
<g>
	<defs>
		<rect id="SVGID_1_" x="-143.3" y="-179.3" width="566.9" height="566.9"/>
	</defs>
	<clipPath id="SVGID_2_">
		<use xlink:href="#SVGID_1_"  style="overflow:visible;"/>
	</clipPath>
	<path class="st1" d="M80.6,103.6c0.5-0.2,1.1-0.3,1.6-0.3c4.3,0.3,8.5,0.6,12.8,0.9c0.8,0.1,1.7,0,1.6,1.2c-0.1,1-1,0.8-1.7,0.8
		c-4.3-0.3-8.5-0.6-12.8-0.9c-0.6,0-1.1-0.2-1.6-0.5C80.6,104.4,80.6,104,80.6,103.6"/>
	<path class="st1" d="M83,122.7c-0.4-0.6-0.7-1.3,0.1-1.8c0.6-0.4,2.8,0,3,0.5c0.4,0.7-0.2,1.1-0.7,1.5L83,122.7z"/>
	<path class="st1" d="M135.5,73.4c-2.8-0.2-22-1.7-24.9-1.9c-0.5,0-1-0.2-1-0.7c0-0.5-0.2-1.2,0.7-1.2c0.3-0.2,0.6-0.1,0.9-0.1
		c10.4,0.8,37.1,2.8,47.4,3.6c0.7,0.4,2,0.7,1.8,1.6c-0.2,0.8-1.4,0.2-2.2,0.2c-7-0.5-14-1-21-1.5C136.6,73.4,136.1,73.3,135.5,73.4
		"/>
	<path class="st1" d="M160.6,65.7c0.7,0.5,0.7,1.1,0,1.6c-0.3,0.2-0.7,0.1-1.1,0.1c-9.6-0.7-19.2-1.4-28.9-2.1c-0.3,0-0.6,0-0.9-0.2
		c-0.7-0.6-0.7-1.1,0.2-1.6c0.3-0.2,0.7-0.1,1.1-0.1c9.5,0.7,19,1.4,28.5,2.1C159.9,65.5,160.3,65.5,160.6,65.7"/>
	<path class="st1" d="M165.9,20.3c0.6,0.7,0.5,1.2-0.4,1.5c-0.3,0.2-0.7,0.1-1.1,0.1c-8.7-0.6-17.4-1.3-26.1-1.9c-0.4,0-0.7,0-1-0.2
		c-1-0.3-1-0.9-0.4-1.6c0.4-0.2,0.8-0.1,1.2-0.1c8.8,0.6,17.7,1.3,26.5,1.9C165.1,20,165.6,20,165.9,20.3"/>
	<path class="st1" d="M149.9,50.1c2.7,0.2,5.4,0.4,8.2,0.6c0.8,0.1,1.6,0.2,1.5,1.1c0,0.9-0.8,1-1.6,0.9c-5.5-0.4-11-0.8-16.5-1.2
		c-0.8-0.1-1.5-0.3-1.4-1.2c0.1-0.9,0.9-0.9,1.7-0.9C144.5,49.7,147.2,49.9,149.9,50.1"/>
	<path class="st1" d="M159.8,116.5c-3-0.2-6-0.4-8.9-0.6c-0.8-0.1-1.6-0.1-1.5-1.1c0.1-1,0.9-0.9,1.7-0.9c6.1,0.4,12.1,0.9,18.2,1.3
		c0.7,0.1,1.5,0.1,1.4,1c0,1-0.8,1-1.6,0.9C166,116.9,162.9,116.7,159.8,116.5"/>
	<path class="st1" d="M117.8,88.4c2.5,0.2,4.9,0.4,7.4,0.5c0.8,0.1,1.5,0.2,1.5,1.2c-0.1,0.9-0.9,1-1.7,0.9
		c-4.9-0.4-9.7-0.7-14.6-1.1c-0.8-0.1-1.5-0.2-1.5-1.2c0.1-1,0.9-0.9,1.7-0.9C113,88,115.4,88.2,117.8,88.4"/>
	<path class="st1" d="M130.2,80.3c-2.8-0.2-5.5-0.4-8.3-0.6c-0.8-0.1-1.6-0.1-1.5-1.1c0.1-1,0.9-0.9,1.7-0.8
		c5.6,0.4,11.3,0.8,16.9,1.2c0.7,0.1,1.6,0.1,1.5,1.1c-0.1,1.1-1,1-1.8,0.9C135.9,80.7,133,80.5,130.2,80.3"/>
	<path class="st1" d="M144,28.3c-6.7-0.5-19.2-1.5-25.8-1.9c-0.6,0-1.3-0.2-1.3-1c0-0.9,0.7-1,1.4-1c5.9,0.5,17.7,1.5,23.7,1.9
		C142.9,26.8,143.8,27.1,144,28.3"/>
	<path class="st1" d="M141.6,39.5c-0.8-0.4-0.8-1-0.2-1.6c0.3-0.2,0.7-0.1,1.1-0.1c7.1,0.5,14.2,1,21.3,1.5c0.3,0,0.7,0,1,0.2
		c0.6,0.7,0.5,1.2-0.4,1.5c-0.3,0.2-0.6,0.1-0.9,0.1c-7-0.5-14-1-21.1-1.5C142.2,39.7,141.9,39.8,141.6,39.5"/>
	<path class="st1" d="M182.5,112.5c2.8,0.2,5.5,0.4,8.3,0.6c0.7,0.1,1.6,0.1,1.5,1.1c-0.1,1-0.9,0.9-1.7,0.8
		c-5.5-0.4-11-0.8-16.5-1.2c-0.7-0.1-1.6,0-1.6-1c0-1.2,1-1,1.7-0.9C177.1,112.1,179.8,112.3,182.5,112.5"/>
	<path class="st1" d="M91.8,102.5c-2.7-0.2-5.4-0.4-8.2-0.6c-0.7-0.1-1.6-0.1-1.5-1.1c0-1,0.9-1,1.6-0.9c5.5,0.4,11.1,0.8,16.6,1.2
		c0.7,0.1,1.6,0.1,1.5,1.1c-0.1,1-0.9,0.9-1.7,0.8C97.3,102.9,94.6,102.7,91.8,102.5"/>
	<path class="st1" d="M132,61.5c-0.8-0.5-0.8-1-0.1-1.6c0.3-0.2,0.6-0.1,0.9-0.1c7,0.5,13.9,1,20.9,1.5c0.3,0,0.6,0,0.9,0.2
		c0.5,0.6,0.7,1.2-0.3,1.5c-0.3,0.2-0.6,0.1-0.9,0.1c-6.8-0.5-13.6-1-20.5-1.5C132.5,61.6,132.2,61.7,132,61.5"/>
	<path class="st1" d="M147.7,53.5c2.7,0.2,5.4,0.4,8.2,0.6c0.7,0,1.4,0.1,1.4,1c0,1-0.8,1-1.6,0.9c-5.5-0.4-11-0.8-16.5-1.2
		c-0.7,0-1.4-0.1-1.4-1c0-1.1,0.8-1,1.6-0.9C142.2,53.1,144.9,53.3,147.7,53.5"/>
	<path class="st1" d="M123.6,87.1c-2.2-0.2-4.3-0.3-6.5-0.5c-0.8-0.1-1.5-0.2-1.5-1.2c0.1-1,0.9-1,1.6-0.9c4.3,0.3,8.6,0.6,12.9,0.9
		c0.8,0.1,1.6,0.2,1.5,1.2c-0.1,1-0.9,0.9-1.7,0.9C127.9,87.5,125.7,87.3,123.6,87.1"/>
	<path class="st1" d="M182.1,118.1c-2.5-0.2-5-0.4-7.5-0.5c-0.8-0.1-1.6-0.1-1.5-1.1c0.1-1,0.9-0.9,1.7-0.9c5,0.4,10,0.7,15.1,1.1
		c0.7,0,1.5,0.1,1.4,1c0,1-0.8,1-1.6,0.9C187.2,118.5,184.6,118.3,182.1,118.1"/>
	<path class="st1" d="M182.7,110.4c-2.5-0.2-7.6-0.6-10.1-0.8c-0.8-0.1-1.6-0.1-1.5-1.1c0.1-1,0.9-0.9,1.7-0.9
		c5,0.4,12.6,1,17.6,1.4c0.7,0,1.4,0.1,1.4,1c0,1-0.8,1-1.6,0.9C187.7,110.8,185.2,110.6,182.7,110.4"/>
	<path class="st1" d="M176,40.2c2.1,0.1,4.1,0.3,6.2,0.4c0.8,0.1,1.5,0.2,1.4,1.2c-0.1,0.9-0.8,0.9-1.5,0.9
		c-4.2-0.3-8.3-0.6-12.5-0.9c-0.7-0.1-1.4-0.2-1.4-1.1c0.1-1,0.9-1,1.6-0.9C171.9,39.9,173.9,40,176,40.2"/>
	<path class="st1" d="M161.1,10.3c-2.4-0.2-9.5-0.8-11.9-1c-0.7-0.1-1.4-0.1-1.4-1c0-0.9,0.7-1,1.5-0.9c4.8,0.4,14.3,1.2,19.1,1.5
		c0.7,0.1,1.4,0.2,1.3,1.1c-0.1,0.9-0.8,0.9-1.5,0.8C165.8,10.6,163.5,10.5,161.1,10.3"/>
	<path class="st1" d="M155.4,57.9c0.6,0.6,0.5,1.1-0.2,1.6c-2.4,0.1-4.8-0.2-7.2-0.4c-4-0.3-8.1-0.4-12.1-1c-0.7-0.5-0.7-1,0-1.6
		c0.3-0.2,0.6-0.1,0.9-0.1c5.9,0.4,11.9,0.9,17.8,1.3C154.8,57.7,155.1,57.7,155.4,57.9"/>
	<path class="st1" d="M160.8,47.1c0.6,0.6,0.6,1.1-0.1,1.5c-0.2,0.1-0.4,0.1-0.6,0.1c-6-0.4-19.2-1.5-25.2-1.9
		c-0.2,0-0.4-0.1-0.6-0.2c-0.7-0.5-0.6-1.1,0.1-1.5c0.3-0.2,0.6-0.1,0.9-0.1c5.8,0.4,18.8,1.4,24.6,1.9
		C160.3,46.9,160.6,46.9,160.8,47.1"/>
	<path class="st1" d="M148.8,34.5c5.5,0.4,11,0.8,16.5,1.1c0.8,0.1,1.4,0.3,1.3,1.2c-0.1,0.8-0.7,0.9-1.4,0.8
		c-4.6-0.4-9.1-0.7-13.7-1.1c-0.5-0.4-1.2-0.3-1.7-0.6C149.3,35.6,148.4,35.5,148.8,34.5"/>
	<path class="st1" d="M118.6,82.8c-0.8-0.8-0.7-1.3,0.4-1.6c4.2,0,8.5,0.5,12.7,0.8c1.5,0.1,3,0,4.4,0.4c0.8,0.5,0.9,1,0.2,1.6
		c-1.2,0.2-2.4,0-3.5-0.1C128,83.6,123.3,83.4,118.6,82.8"/>
	<path class="st1" d="M160.8,14c-2.1-0.2-4.2-0.3-6.3-0.5c-0.7,0-1.4-0.2-1.3-1.1c0.1-0.9,0.8-0.9,1.5-0.9c4.3,0.3,8.5,0.6,12.8,0.9
		c0.7,0.1,1.4,0.2,1.3,1.1c-0.1,0.9-0.8,0.9-1.5,0.9C165.1,14.3,163,14.1,160.8,14"/>
	<path class="st1" d="M161.5,4.9c2,0.1,4.1,0.3,6.2,0.4c0.7,0.1,1.6,0.1,1.5,1.1c-0.1,0.9-0.8,0.9-1.5,0.8
		c-4.2-0.3-8.4-0.6-12.6-0.9c-0.8-0.1-1.5-0.2-1.5-1.2c0.1-0.9,0.9-0.9,1.5-0.8C157.2,4.6,159.3,4.8,161.5,4.9"/>
	<path class="st1" d="M135.5,73.4c0.5-0.4,1.1-0.2,1.6-0.1c7.2,0.5,14.4,1,21.6,1.5c0.5,0,1,0.2,1.5,0c-0.3-0.8-1.2-0.7-1.5-1.4
		c0.2-0.3,0.6-0.2,0.9-0.2c3.5,0.3,7.1,0.3,10.6,0.9c0.6,0.2,0.7,0.7,0.5,1.3c-0.2,0.5-0.6,0.6-1.1,0.6c-0.1,0-0.1,0-0.2,0
		C158,75.1,146.8,74.3,135.5,73.4"/>
	<path class="st1" d="M151.3,27c6.7,0.5,13.3,0.9,20,1.4c0.8,0.1,1.4,0.3,1.3,1.2c-0.1,0.8-0.7,0.9-1.4,0.8
		c-3.8-0.3-7.6-0.6-11.4-0.9c-2-1.3-4.3-1.5-6.6-1.6C152.5,27.7,151.6,28,151.3,27"/>
	<path class="st1" d="M160.1,17.5c-1.7-0.1-3.5-0.2-5.2-0.4c-0.7-0.1-1.4-0.3-1.3-1.2c0.1-0.8,0.7-0.9,1.4-0.8
		c3.5,0.3,7.1,0.5,10.6,0.8c0.7,0,1.3,0.2,1.3,1c0,0.9-0.7,1.1-1.4,1C163.7,17.8,161.9,17.7,160.1,17.5"/>
	<path class="st1" d="M101.8,97.7c1.7,0.1,3.4,0.3,5.1,0.4c0.7,0,1.4,0.2,1.4,1.1c0,0.9-0.7,1-1.4,1c-3.5-0.3-7-0.5-10.4-0.8
		c-0.7-0.1-1.4-0.2-1.4-1.1c0.1-1,0.8-1,1.6-0.9C98.3,97.4,100.1,97.6,101.8,97.7"/>
	<path class="st1" d="M165.8,82.9c-2-0.1-3.9-0.3-5.9-0.4c-0.7,0-1.5-0.2-1.4-1c0-1,0.8-1,1.6-0.9c4,0.3,7.9,0.6,11.9,0.9
		c0.8,0.1,1.6,0.1,1.5,1.1c-0.1,1-0.9,0.9-1.7,0.8C169.8,83.2,167.8,83.1,165.8,82.9"/>
	<path class="st1" d="M157.8,120c-2-0.1-4-0.3-6-0.4c-0.7,0-1.4-0.1-1.4-1c0-1.1,0.8-1,1.6-0.9c4,0.3,8,0.6,12,0.9
		c0.7,0.1,1.6,0.1,1.5,1.1c-0.1,1-0.9,0.9-1.7,0.9C161.8,120.3,159.8,120.2,157.8,120"/>
	<path class="st1" d="M151.3,27c1.6,0.7,3.4,0.4,5.1,0.6c1.4,0.2,2.5,0.8,3.4,1.8c-5.2-0.2-10.5-0.6-15.7-1.1c-0.7-0.7-1.3-1.3-2-2
		C145.1,26.5,148.2,26.7,151.3,27"/>
	<path class="st1" d="M106.3,94.5c1.9,0.1,3.9,0.3,5.8,0.4c0.7,0.1,1.4,0.2,1.4,1.1c-0.1,0.9-0.7,1-1.5,0.9
		c-4-0.3-16.1-1.4-20.1-1.7c-0.7-0.1-1.4-0.2-1.4-1.1c0-0.9,0.8-0.9,1.5-0.9C94.1,93.3,104.3,94.3,106.3,94.5"/>
	<path class="st1" d="M161.6,25.5c-6-0.3-11.9-0.7-17.9-1.3c-0.3-0.5-1-0.7-1.3-1.2c-0.2-0.4-0.3-0.6,0.3-0.6
		c5.4,0.4,10.7,0.8,16.1,1.2C160,23.7,161.3,23.9,161.6,25.5"/>
	<path class="st1" d="M159.1,77.1c4.9,0.3,9.8,0.7,14.7,1c0.7,0,1.4,0.2,1.3,1.1c-0.1,0.8-0.7,0.9-1.4,0.8c-4-0.3-8-0.6-12-0.9
		c-0.5-0.4-1.2-0.5-1.8-0.8C159.5,78,158.9,77.8,159.1,77.1"/>
	<path class="st1" d="M161.6,25.5c-1-1-2-1.8-3.5-1.9c-5.3-0.3-10.6-0.7-15.8-1.1c-1.2,0.5-2.4,0.8-3.4-0.5
		c10.5,0.7,21,1.5,31.5,2.2c0.7,0,1.3,0.3,1.2,1.1c0,0.8-0.6,1-1.3,0.9C167.4,26,164.5,25.8,161.6,25.5"/>
	<path class="st1" d="M166.5,33.9c-4.8-0.2-9.7-0.6-14.5-1c-0.5-0.4-1.2-0.3-1.7-0.7c-0.4-0.3-1.1-0.5-0.7-1.3
		c4.7,0.3,9.5,0.7,14.2,1c0.6,0.4,1.3,0.6,1.9,0.9C166.2,33.1,166.8,33.2,166.5,33.9"/>
	<path class="st1" d="M141.5,42c0.4-0.5,1-0.2,1.4-0.2c6.2,0.4,12.4,0.9,18.6,1.3c0.2,0,0.4,0,0.6,0c0.7,0.1,1.2,0.4,1.1,1.2
		c-0.1,0.7-0.7,0.8-1.3,0.8c-1.9-0.1-3.9-0.3-5.8-0.4c-1.6-0.1-3.3-0.3-4.9-0.4c-2.1-1.3-4.5-1.5-7-1.7
		C143.3,42.6,142.3,42.8,141.5,42"/>
	<path class="st1" d="M142.6,70c-4.5-0.3-9.1-0.6-13.6-0.9c-0.7,0-1.3-0.2-1.3-1c0-0.8,0.7-1,1.4-1c3.8,0.3,7.7,0.6,11.5,0.9
		C141.3,68.6,142.7,68.5,142.6,70"/>
	<path class="st1" d="M142.6,70c-0.3-1.1-1.6-1.1-2-2c4.2,0.3,8.4,0.6,12.6,0.9c0.9,0.3,2,0.4,2.9,0.9c0.4,0.3,1.1,0.4,0.7,1.2
		C152,70.8,147.3,70.5,142.6,70"/>
	<path class="st1" d="M159.1,77.1c0.5,1.2,2.1,0.8,2.6,2c-4.3-0.3-8.6-0.6-12.9-0.9c-0.7,0-1.3-0.3-1.2-1.1c0.1-0.8,0.7-0.9,1.3-0.9
		C152.3,76.5,155.7,76.8,159.1,77.1"/>
	<path class="st1" d="M138.9,22c1.1,0.6,2.2,0.3,3.4,0.5c0.4,0.7,1.5,0.6,1.4,1.7c-4.3-0.3-8.5-0.6-12.8-0.8c-0.7,0-1.3-0.3-1.2-1.1
		c0.1-0.7,0.6-1,1.4-0.9C133.7,21.6,136.3,21.8,138.9,22"/>
	<path class="st1" d="M162.1,3.4c-1.6-0.1-3.3-0.2-4.9-0.4c-0.7-0.1-1.4-0.2-1.3-1.1c0.1-0.8,0.7-0.9,1.4-0.8
		c3.3,0.2,6.7,0.5,10,0.7c0.7,0,1.3,0.3,1.2,1.1c0,0.8-0.6,1-1.3,0.9C165.5,3.6,163.8,3.5,162.1,3.4"/>
	<path class="st1" d="M87,107.2c1.4,0.1,2.9,0.2,4.3,0.3c0.7,0,1.2,0.4,1.2,1.1c0,0.7-0.6,1-1.3,1c-2.8-0.2-5.6-0.4-8.4-0.6
		c-0.7-0.1-1.2-0.4-1.1-1.2c0.1-0.7,0.7-0.9,1.4-0.9C84.4,107,85.7,107.1,87,107.2"/>
	<path class="st1" d="M131,75c4.1,0.3,8.2,0.6,12.3,0.8c0.7,0,1.3,0.2,1.2,1.1c-0.1,0.8-0.7,0.9-1.3,0.9c-3.1-0.2-6.2-0.5-9.2-0.7
		c-0.5-0.5-1.3-0.3-1.8-0.7C131.7,76.1,130.9,75.9,131,75"/>
	<path class="st1" d="M156.4,110.6c1.5,0.1,3.1,0.2,4.6,0.3c0.7,0,1.4,0.3,1.3,1.1c-0.1,0.8-0.7,0.9-1.4,0.9
		c-3.2-0.2-6.3-0.5-9.5-0.7c-0.7,0-1.2-0.3-1.2-1.1c0.1-0.8,0.7-0.9,1.4-0.9C153.2,110.4,154.8,110.5,156.4,110.6"/>
	<path class="st1" d="M162.7,91.9c1.3,0.1,2.6,0.2,3.8,0.3c0.7,0.1,1.3,0.3,1.2,1.1c0,0.9-0.7,1-1.4,1c-2.6-0.2-5.2-0.4-7.8-0.6
		c-0.7,0-1.3-0.3-1.2-1.1c0-0.9,0.7-1,1.4-1C160.1,91.7,161.4,91.8,162.7,91.9"/>
	<path class="st1" d="M115.4,93.7c-4-0.3-7.9-0.5-11.9-0.8c-0.7,0-1.3-0.3-1.2-1.1c0.1-0.8,0.7-0.9,1.4-0.9c2.9,0.2,5.8,0.5,8.8,0.7
		c0.6,0.5,1.4,0.6,2.1,0.9C115,92.8,115.6,93,115.4,93.7"/>
	<path class="st1" d="M156.7,71c-0.2-1.1-1.2-0.9-1.8-1.3c-0.5-0.3-1.1-0.6-1.7-0.8c3.9,0.3,7.8,0.5,11.6,0.8c0.8,0,1.4,0.3,1.3,1.2
		c-0.1,0.8-0.7,0.9-1.4,0.8C162,71.5,159.4,71.2,156.7,71"/>
	<path class="st1" d="M185.1,39.2c-1.1-0.1-2.3-0.2-3.4-0.2c-0.7-0.1-1.3-0.4-1.2-1.1c0.1-0.7,0.6-1,1.3-0.9
		c2.3,0.2,4.5,0.3,6.8,0.5c0.7,0,1.2,0.4,1.2,1.1c-0.1,0.8-0.6,1-1.3,0.9C187.4,39.4,186.3,39.3,185.1,39.2"/>
	<path class="st1" d="M166.5,33.9c-0.5-1.2-2.2-0.7-2.6-2c3.3,0.2,6.7,0.4,10,0.7c0.8,0,1.4,0.3,1.3,1.2c-0.1,0.8-0.8,0.9-1.4,0.8
		C171.3,34.3,168.9,34.1,166.5,33.9"/>
	<path class="st1" d="M161.2,95.5c1.1,0.1,2.1,0.1,3.2,0.2c0.6,0.1,1.1,0.4,1,1.1c0,0.7-0.5,1-1.2,0.9c-2.3-0.1-4.5-0.3-6.7-0.5
		c-0.6-0.1-1.1-0.4-1-1.1c0.1-0.8,0.6-1,1.3-0.9C158.9,95.3,160.1,95.4,161.2,95.5"/>
	<path class="st1" d="M165.8,84.8c1.2,0.1,2.5,0.2,3.7,0.3c0.7,0.1,1.4,0.2,1.3,1.1c-0.1,0.8-0.7,0.9-1.4,0.9
		c-2.5-0.2-4.9-0.4-7.4-0.5c-0.8-0.1-1.4-0.3-1.3-1.1c0.1-0.9,0.8-0.9,1.5-0.8C163.4,84.7,164.6,84.8,165.8,84.8"/>
	<path class="st1" d="M172.5,36.2c1.3,0.1,2.6,0.2,3.8,0.3c0.7,0,1.1,0.4,1,1.1c-0.1,0.7-0.6,0.9-1.2,0.9c-2.6-0.2-5.2-0.4-7.8-0.6
		c-0.7,0-1.1-0.4-1-1.1c0.1-0.7,0.6-0.9,1.2-0.9C169.8,36,171.1,36.1,172.5,36.2"/>
	<path class="st1" d="M122.4,30.6c-1-0.1-2.1-0.1-3.1-0.2c-0.6-0.1-1.1-0.4-1.1-1.1c0-0.7,0.5-1,1.2-0.9c2.1,0.1,4.2,0.3,6.3,0.5
		c0.6,0.1,1.1,0.4,1.1,1.1c0,0.7-0.5,1-1.2,0.9C124.6,30.8,123.5,30.7,122.4,30.6"/>
	<path class="st1" d="M159.7,99.1c1,0.1,1.9,0.1,2.9,0.2c0.7,0,1.3,0.3,1.3,1.1c0,0.8-0.6,1-1.3,1c-2-0.1-8-0.6-10-0.8
		c-0.6-0.1-1.1-0.4-1.1-1c0-0.8,0.6-1,1.3-1C153.8,98.6,158.7,99,159.7,99.1"/>
	<path class="st1" d="M163.7,88.2c1.2,0.1,2.5,0.2,3.7,0.3c0.6,0.1,1.1,0.3,1,1c-0.1,0.7-0.5,0.9-1.2,0.9c-2.5-0.2-4.9-0.4-7.4-0.5
		c-0.7,0-1.1-0.3-1-1.1c0-0.7,0.5-0.9,1.2-0.9C161.2,88,162.5,88.1,163.7,88.2"/>
	<path class="st1" d="M149.7,30.9c0.3,1.2,1.8,1.1,2.3,2c-3.2-0.2-6.4-0.4-9.7-0.6c-0.7,0-1.2-0.3-1.1-1.1c0.1-0.7,0.6-0.9,1.2-0.8
		C144.9,30.5,147.3,30.7,149.7,30.9"/>
	<path class="st1" d="M109.2,38.1c1.2,0.1,2.3,0.2,3.5,0.3c0.6,0,1.1,0.3,1.1,1c0,0.7-0.5,1-1.2,0.9c-2.3-0.2-4.7-0.3-7-0.5
		c-0.6,0-1.1-0.3-1.1-1c0-0.7,0.5-0.9,1.2-0.9C106.9,37.9,108.1,38,109.2,38.1"/>
	<path class="st1" d="M175.8,46.1c-1.2-0.1-2.4-0.2-3.5-0.3c-0.7,0-1.2-0.4-1.1-1.2c0.1-0.7,0.6-0.9,1.3-0.8
		c2.3,0.2,4.6,0.3,6.9,0.5c0.7,0,1.1,0.3,1.1,1c0,0.7-0.6,1-1.3,1C178,46.2,176.9,46.1,175.8,46.1"/>
	<path class="st1" d="M131,75c0.4,0.8,1.2,1.1,1.9,1.3c0.4,0.2,0.9,0.2,1,0.7c-3.2-0.2-6.4-0.4-9.6-0.6c-0.7,0-1.2-0.3-1.1-1.1
		c0.1-0.7,0.6-0.9,1.2-0.8C126.7,74.7,128.8,74.9,131,75"/>
	<path class="st1" d="M115.4,93.7c-0.3-0.8-1.1-0.7-1.7-1c-0.5-0.3-1-0.4-1.2-1c3.1,0.2,6.2,0.4,9.3,0.6c0.7,0,1.2,0.3,1.1,1.1
		c-0.1,0.7-0.6,0.9-1.2,0.8C119.6,94,117.5,93.9,115.4,93.7"/>
	<path class="st1" d="M158.3,103c0.9,0.1,1.7,0.1,2.6,0.2c0.7,0,1.2,0.3,1.2,1.1c0,0.7-0.6,1-1.2,0.9c-1.9-0.1-3.8-0.3-5.7-0.4
		c-0.6,0-1.1-0.4-1.1-1c0-0.7,0.6-1,1.3-1C156.4,102.9,157.4,102.9,158.3,103"/>
	<path class="st1" d="M181.7,122.1c-1.1-0.1-2.2-0.2-3.2-0.2c-0.7,0-1.1-0.3-1.1-1c0-0.8,0.6-1,1.3-0.9c2.2,0.2,4.4,0.3,6.6,0.5
		c0.7,0,1.1,0.3,1,1.1c-0.1,0.7-0.5,0.9-1.2,0.9C184,122.3,182.8,122.2,181.7,122.1"/>
	<path class="st1" d="M182.8,106.4c-1-0.1-2.1-0.2-3.1-0.2c-0.7,0-1.3-0.3-1.3-1.1c0-0.8,0.6-1,1.3-0.9c2.2,0.2,4.3,0.3,6.5,0.5
		c0.7,0,1.2,0.3,1.2,1.1c-0.1,0.8-0.7,0.9-1.4,0.9C185,106.5,183.9,106.4,182.8,106.4"/>
	<path class="st1" d="M148.8,34.5c0.3,1.4,2,1.1,2.6,2c-3-0.2-6.1-0.4-9.1-0.6c-0.7,0-1.3-0.3-1.2-1.1c0.1-0.8,0.6-0.9,1.4-0.9
		C144.6,34.2,146.7,34.3,148.8,34.5"/>
	<path class="st1" d="M156.6,108.9c-1.1-0.1-2.1-0.1-3.2-0.2c-0.6-0.1-1-0.4-1-1c0-0.7,0.5-1,1.1-1c2.2,0.2,4.5,0.3,6.7,0.5
		c0.6,0,1,0.4,0.9,1c0,0.7-0.5,1-1.1,1C159,109.1,157.8,109,156.6,108.9"/>
	<path class="st1" d="M186.5,35.6c-0.9-0.1-1.7-0.1-2.6-0.2c-0.7-0.1-1.2-0.4-1.2-1.1c0.1-0.6,0.6-1,1.2-0.9
		c1.8,0.1,3.6,0.2,5.4,0.4c0.6,0.1,1.1,0.4,1.1,1.1c0,0.8-0.6,1-1.3,1C188.2,35.8,187.3,35.7,186.5,35.6"/>
	<path class="st1" d="M85.3,112.7c-0.9-0.1-1.8-0.1-2.8-0.2c-0.7,0-1.2-0.4-1.2-1.1c0.1-0.6,0.6-0.9,1.2-0.9c2,0.2,4,0.3,6,0.4
		c0.7,0.1,1.1,0.4,1,1.1c-0.1,0.7-0.6,0.9-1.2,0.9C87.4,112.8,86.4,112.7,85.3,112.7"/>
	<path class="st1" d="M141.5,42c2.1,0.1,4.2,0.3,6.3,0.4c1.5,0.1,2.5,0.9,3.5,1.8c-3-0.2-6-0.3-9-0.6C141.1,43.6,140.7,43,141.5,42"
		/>
	<path class="st1" d="M170.1,74.1c-3.8-0.2-7.6-0.5-11.4-0.7c-9.1-0.7-18.1-1.3-27.2-2c-1.6-0.1-19.6-1.6-21.3-1.7
		c0.4-0.3,0.9-0.1,1.4-0.1c13.6,1,43.6,3.3,57.2,4.3C169.3,73.9,169.8,73.8,170.1,74.1"/>
	<path class="st1" d="M114.1,34.8c0.6,0,1.2,0.1,1.8,0.1c0.7,0.1,1.1,0.4,1.1,1.1c0,0.6-0.5,1-1,0.9c-1.4-0.1-12.9-1.2-14.3-1.3
		c-0.6-0.1-0.9-0.5-0.9-1.1c0.1-0.7,0.5-1,1.2-0.9C102.6,33.7,113.4,34.7,114.1,34.8"/>
	<path class="st1" d="M84.2,115.9c-0.7-0.1-1.4-0.1-2.1-0.2c-0.7-0.1-1.1-0.4-1-1.1c0-0.6,0.5-0.9,1.1-0.9c1.5,0.1,3.1,0.2,4.6,0.3
		c0.6,0.1,0.9,0.4,0.8,1.1c-0.1,0.6-0.5,0.9-1.1,0.9C85.8,116.1,85,116,84.2,115.9"/>
	<path class="st1" d="M117.9,33.6c-0.7,0-1.3-0.1-2-0.1c-0.6-0.1-1.1-0.4-1-1.1c0.1-0.6,0.5-0.9,1.1-0.9c1.3,0.1,2.7,0.2,4,0.3
		c0.7,0.1,1.1,0.5,1,1.1c-0.1,0.6-0.5,0.9-1.1,0.8C119.2,33.7,118.6,33.6,117.9,33.6"/>
	<path class="st1" d="M107.9,43.6c-0.7,0-1.3-0.1-2-0.1c-0.7-0.1-1.1-0.4-1-1.1c0.1-0.6,0.5-0.9,1.1-0.8c1.3,0.1,2.7,0.2,4,0.3
		c0.6,0,1,0.3,1,0.9c0,0.7-0.4,1-1.1,1C109.3,43.7,108.6,43.7,107.9,43.6"/>
	<path class="st1" d="M129.8,65.1c10.3,0.7,20.5,1.5,30.8,2.2c-0.3,0.4-0.8,0.2-1.1,0.2c-9.5-0.7-19-1.4-28.5-2.1
		C130.5,65.3,130.1,65.4,129.8,65.1"/>
	<path class="st1" d="M83.9,119.3c-0.9-0.3-2.4,0.3-2.3-1.3c0.1-1.4,1.5-0.9,2.4-0.8c0.9,0.1,2.4-0.4,2.3,1.2
		C86.3,120,84.8,119.1,83.9,119.3"/>
	<path class="st1" d="M160.6,65.7c-10.2-0.7-20.4-1.5-30.6-2.2c0.4-0.3,0.8-0.2,1.2-0.1c9.4,0.7,18.9,1.4,28.3,2
		C159.9,65.4,160.3,65.3,160.6,65.7"/>
	<path class="st1" d="M165.9,20.3c-9.6-0.7-19.3-1.4-28.9-2.1c0.4-0.4,1-0.2,1.5-0.2c8.7,0.6,17.4,1.2,26,1.9
		C165,19.9,165.6,19.7,165.9,20.3"/>
	<path class="st1" d="M137.4,19.8c9.4,0.7,18.8,1.3,28.2,2c-0.3,0.2-0.7,0.1-1,0.1c-8.7-0.6-17.4-1.3-26.1-1.9
		C138.1,20,137.7,19.8,137.4,19.8"/>
	<path class="st1" d="M164.8,39.7c-7.8-0.6-15.6-1.1-23.4-1.7c0.4-0.4,0.9-0.2,1.3-0.2c7,0.5,13.9,1,20.9,1.5
		C164,39.3,164.6,39.2,164.8,39.7"/>
	<path class="st1" d="M154.5,61.5c-7.6-0.5-15.1-1.1-22.7-1.6c0.3-0.4,0.7-0.3,1.1-0.2c6.8,0.5,13.6,1,20.4,1.5
		C153.8,61.2,154.3,61.1,154.5,61.5"/>
	<path class="st1" d="M141.6,39.5c7.6,0.6,15.2,1.1,22.8,1.6c-0.3,0.2-0.7,0.1-1,0.1c-6.9-0.5-13.9-1-20.8-1.5
		C142.3,39.8,141.9,39.8,141.6,39.5"/>
	<path class="st1" d="M132,61.5c7.4,0.5,14.8,1.1,22.3,1.6c-0.3,0.3-0.7,0.2-1,0.1c-6.7-0.5-13.5-1-20.2-1.5
		C132.6,61.7,132.2,61.8,132,61.5"/>
	<path class="st1" d="M155.4,57.9c-6.5-0.5-13-0.9-19.6-1.4c0.3-0.4,0.8-0.2,1.1-0.2c5.8,0.4,11.5,0.8,17.3,1.3
		C154.7,57.6,155.1,57.4,155.4,57.9"/>
	<path class="st1" d="M134.4,46.7c6.4,0.5,19.9,1.5,26.4,2c-0.3,0.4-0.7,0.2-1,0.2c-5.8-0.4-11.5-0.8-17.3-1.3
		C142.1,47.6,134.6,47,134.4,46.7"/>
	<path class="st1" d="M160.8,47.1c-6.4-0.5-20-1.5-26.4-2c0.3-0.4,0.8-0.2,1.2-0.2c5.7,0.4,18.5,1.4,24.1,1.8
		C160.1,46.8,160.6,46.7,160.8,47.1"/>
	<path class="st1" d="M135.9,58.1c6.4,0.5,12.9,0.9,19.3,1.4c-0.3,0.3-0.7,0.2-1,0.1c-5.8-0.4-11.5-0.8-17.3-1.3
		C136.5,58.3,136.1,58.4,135.9,58.1"/>
	<path class="st1" d="M118.6,82.8c5.9,0.4,11.8,0.8,17.7,1.3c-0.3,0.4-0.8,0.2-1.1,0.2c-5.1-0.4-10.3-0.7-15.4-1.1
		C119.4,83.1,118.9,83.2,118.6,82.8"/>
	<path class="st1" d="M136.1,82.5c-5.7-0.4-11.4-0.8-17.1-1.3c1.3-0.3,2.5,0,3.8,0.1c3.9,0.3,7.9,0.6,11.8,0.9
		C135.2,82.2,135.7,82.1,136.1,82.5"/>
	<path class="st0" d="M20.9,178.3c-3.8,0-7.5-0.7-11.1-2c-3.6-1.3-7-3.3-9.9-6l6.5-7.8c2.3,1.9,4.6,3.3,7,4.4c2.4,1.1,5,1.6,7.8,1.6
		c2.3,0,4-0.4,5.3-1.2c1.3-0.8,1.9-2,1.9-3.5v-0.1c0-0.7-0.1-1.3-0.4-1.9c-0.3-0.5-0.8-1.1-1.5-1.5c-0.7-0.5-1.8-1-3.1-1.4
		c-1.3-0.5-3-1-5.1-1.5c-2.5-0.6-4.8-1.3-6.8-2.1c-2-0.8-3.8-1.7-5.2-2.8c-1.4-1.1-2.5-2.5-3.3-4.2c-0.8-1.7-1.2-3.7-1.2-6.2V142
		c0-2.3,0.4-4.3,1.3-6.2c0.8-1.8,2-3.4,3.6-4.7c1.5-1.3,3.4-2.3,5.5-3.1c2.1-0.7,4.5-1.1,7-1.1c3.6,0,7,0.5,10,1.6
		c3.1,1.1,5.9,2.7,8.4,4.7l-5.7,8.3c-2.2-1.5-4.4-2.7-6.5-3.6s-4.3-1.3-6.4-1.3c-2.1,0-3.7,0.4-4.8,1.2c-1.1,0.8-1.6,1.9-1.6,3.1
		v0.1c0,0.8,0.2,1.5,0.5,2.1c0.3,0.6,0.9,1.1,1.7,1.6c0.8,0.5,1.9,0.9,3.3,1.4c1.4,0.4,3.2,0.9,5.3,1.5c2.5,0.7,4.8,1.4,6.7,2.2
		c2,0.8,3.6,1.8,5,3c1.4,1.2,2.4,2.5,3.1,4.1c0.7,1.6,1,3.4,1,5.6v0.1c0,2.5-0.4,4.7-1.3,6.6c-0.9,1.9-2.1,3.5-3.7,4.8
		c-1.6,1.3-3.5,2.3-5.7,3C26.1,177.9,23.6,178.3,20.9,178.3"/>
	<rect x="42.7" y="127.7" class="st0" width="10.9" height="49.8"/>
	<path class="st0" d="M76.7,127.3h10.1l21.3,50.2H96.6l-4.5-11.2h-21l-4.5,11.2H55.4L76.7,127.3z M88.2,156.7l-6.6-16.2L75,156.7
		H88.2z"/>
	<polygon class="st0" points="109.3,127.7 147.2,127.7 147.2,137.6 120.3,137.6 120.3,148.4 144,148.4 144,158.3 120.3,158.3 
		120.3,177.6 109.3,177.6 	"/>
	<polygon class="st0" points="149.5,127.7 161.3,127.7 174.3,148.8 187.4,127.7 199.2,127.7 199.2,177.6 188.4,177.6 188.4,145 
		174.4,166.3 174.1,166.3 160.3,145.2 160.3,177.6 149.5,177.6 	"/>
	<path class="st0" d="M222.5,178.3c-3.8,0-7.5-0.7-11.1-2c-3.6-1.3-7-3.3-9.9-6l6.5-7.8c2.3,1.9,4.6,3.3,7,4.4
		c2.4,1.1,5,1.6,7.8,1.6c2.3,0,4-0.4,5.3-1.2c1.3-0.8,1.9-2,1.9-3.5v-0.1c0-0.7-0.1-1.3-0.4-1.9c-0.3-0.5-0.8-1.1-1.5-1.5
		c-0.7-0.5-1.8-1-3.1-1.4c-1.3-0.5-3-1-5.1-1.5c-2.5-0.6-4.8-1.3-6.8-2.1c-2-0.8-3.8-1.7-5.2-2.8c-1.4-1.1-2.5-2.5-3.3-4.2
		s-1.2-3.7-1.2-6.2V142c0-2.3,0.4-4.3,1.3-6.2c0.8-1.8,2-3.4,3.6-4.7c1.5-1.3,3.4-2.3,5.5-3.1c2.1-0.7,4.5-1.1,7-1.1
		c3.6,0,7,0.5,10,1.6c3.1,1.1,5.9,2.7,8.4,4.7l-5.7,8.3c-2.2-1.5-4.4-2.7-6.5-3.6c-2.1-0.9-4.3-1.3-6.4-1.3s-3.7,0.4-4.8,1.2
		c-1.1,0.8-1.6,1.9-1.6,3.1v0.1c0,0.8,0.2,1.5,0.5,2.1c0.3,0.6,0.9,1.1,1.7,1.6c0.8,0.5,1.9,0.9,3.3,1.4s3.2,0.9,5.3,1.5
		c2.5,0.7,4.8,1.4,6.7,2.2c2,0.8,3.6,1.8,5,3c1.4,1.2,2.4,2.5,3.1,4.1c0.7,1.6,1,3.4,1,5.6v0.1c0,2.5-0.4,4.7-1.3,6.6
		c-0.9,1.9-2.1,3.5-3.7,4.8c-1.6,1.3-3.5,2.3-5.7,3C227.6,177.9,225.1,178.3,222.5,178.3"/>
	<path class="st0" d="M243.7,127.7H264c3,0,5.6,0.4,8,1.2c2.3,0.8,4.3,2,6,3.5c1.6,1.5,2.9,3.3,3.8,5.4c0.9,2.1,1.3,4.5,1.3,7v0.1
		c0,2.9-0.5,5.4-1.6,7.6c-1,2.2-2.5,4-4.3,5.5c-1.8,1.5-4,2.6-6.4,3.3c-2.4,0.7-5,1.1-7.8,1.1h-8.3v15h-10.9V127.7z M263.3,152.8
		c2.7,0,4.9-0.7,6.4-2.2c1.5-1.4,2.3-3.2,2.3-5.4v-0.1c0-2.5-0.8-4.3-2.4-5.6c-1.6-1.3-3.8-1.9-6.5-1.9h-8.4v15.2H263.3z"/>
	<path class="st2" d="M40.5,195.1c-0.7,0-1.3-0.1-1.9-0.3c-0.6-0.2-1.1-0.6-1.6-1l0.6-0.7c0.4,0.4,0.9,0.7,1.3,0.9
		c0.5,0.2,1,0.3,1.6,0.3c0.6,0,1-0.1,1.4-0.4c0.3-0.3,0.5-0.6,0.5-1v0c0-0.2,0-0.4-0.1-0.5c-0.1-0.2-0.2-0.3-0.3-0.4
		c-0.2-0.1-0.4-0.2-0.7-0.4c-0.3-0.1-0.7-0.2-1.1-0.3c-0.5-0.1-0.9-0.2-1.3-0.4c-0.4-0.1-0.7-0.3-0.9-0.5c-0.2-0.2-0.4-0.4-0.5-0.7
		c-0.1-0.3-0.2-0.6-0.2-0.9v0c0-0.3,0.1-0.6,0.2-0.9s0.3-0.5,0.6-0.7s0.5-0.4,0.9-0.5c0.3-0.1,0.7-0.2,1.1-0.2
		c0.6,0,1.2,0.1,1.6,0.3c0.5,0.2,0.9,0.4,1.4,0.8l-0.6,0.7c-0.4-0.3-0.8-0.6-1.2-0.7c-0.4-0.1-0.8-0.2-1.3-0.2c-0.6,0-1,0.1-1.3,0.4
		c-0.3,0.3-0.5,0.6-0.5,1v0c0,0.2,0,0.4,0.1,0.5s0.2,0.3,0.4,0.4c0.2,0.1,0.4,0.3,0.7,0.4c0.3,0.1,0.7,0.2,1.2,0.3
		c0.9,0.2,1.6,0.5,2.1,0.9c0.5,0.4,0.7,0.9,0.7,1.5v0c0,0.4-0.1,0.7-0.2,1c-0.1,0.3-0.3,0.6-0.6,0.8c-0.3,0.2-0.6,0.4-0.9,0.5
		C41.3,195.1,40.9,195.1,40.5,195.1"/>
	<path class="st2" d="M44.9,186.3h1.1v1h-1.1V186.3z M44.9,188.7h0.9v6.3h-0.9V188.7z"/>
	<path class="st2" d="M47.7,188.7h0.9v1.1c0.2-0.3,0.5-0.6,0.8-0.9c0.3-0.2,0.8-0.4,1.3-0.4c0.4,0,0.7,0.1,1,0.2
		c0.3,0.1,0.5,0.3,0.8,0.5c0.2,0.2,0.4,0.5,0.5,0.8c0.1,0.3,0.2,0.7,0.2,1v3.9h-0.9v-3.7c0-0.6-0.1-1-0.4-1.4s-0.7-0.5-1.3-0.5
		c-0.3,0-0.5,0-0.7,0.1c-0.2,0.1-0.4,0.2-0.6,0.4c-0.2,0.2-0.3,0.4-0.4,0.6c-0.1,0.2-0.1,0.5-0.1,0.8v3.6h-0.9V188.7z"/>
	<path class="st2" d="M57.4,195.1c-0.4,0-0.7-0.1-1.1-0.2c-0.4-0.1-0.7-0.4-1-0.6c-0.3-0.3-0.5-0.6-0.7-1c-0.2-0.4-0.3-0.9-0.3-1.4
		v0c0-0.5,0.1-1,0.3-1.4c0.2-0.4,0.4-0.8,0.7-1c0.3-0.3,0.6-0.5,1-0.6c0.4-0.1,0.7-0.2,1.1-0.2c0.3,0,0.6,0,0.8,0.1
		c0.2,0.1,0.5,0.2,0.7,0.3c0.2,0.1,0.4,0.3,0.5,0.4c0.2,0.2,0.3,0.3,0.4,0.5v-3.8h0.9v8.9h-0.9v-1.3c-0.1,0.2-0.3,0.4-0.4,0.5
		c-0.2,0.2-0.3,0.3-0.5,0.5c-0.2,0.1-0.4,0.2-0.6,0.3C58,195.1,57.7,195.1,57.4,195.1 M57.6,194.3c0.3,0,0.6-0.1,0.8-0.2
		c0.3-0.1,0.5-0.3,0.7-0.5c0.2-0.2,0.4-0.5,0.5-0.8c0.1-0.3,0.2-0.6,0.2-1v0c0-0.4-0.1-0.7-0.2-1c-0.1-0.3-0.3-0.5-0.5-0.8
		c-0.2-0.2-0.5-0.4-0.7-0.5c-0.3-0.1-0.6-0.2-0.8-0.2c-0.3,0-0.6,0.1-0.9,0.2c-0.3,0.1-0.5,0.3-0.7,0.5c-0.2,0.2-0.4,0.5-0.5,0.8
		c-0.1,0.3-0.2,0.6-0.2,1v0c0,0.4,0.1,0.7,0.2,1c0.1,0.3,0.3,0.6,0.5,0.8c0.2,0.2,0.4,0.4,0.7,0.5S57.3,194.3,57.6,194.3"/>
	<path class="st2" d="M62.5,186.3h1.1v1h-1.1V186.3z M62.6,188.7h0.9v6.3h-0.9V188.7z"/>
	<path class="st2" d="M68.1,195.1c-0.5,0-0.9-0.1-1.3-0.3c-0.4-0.2-0.7-0.4-1-0.7c-0.3-0.3-0.5-0.6-0.7-1c-0.2-0.4-0.2-0.8-0.2-1.3
		v0c0-0.4,0.1-0.9,0.2-1.3c0.2-0.4,0.4-0.7,0.7-1c0.3-0.3,0.6-0.5,1-0.7c0.4-0.2,0.8-0.3,1.3-0.3c0.3,0,0.6,0,0.8,0.1
		c0.2,0.1,0.5,0.1,0.7,0.2c0.2,0.1,0.4,0.2,0.6,0.4s0.3,0.3,0.5,0.4l-0.6,0.7c-0.3-0.3-0.5-0.5-0.8-0.7c-0.3-0.2-0.7-0.3-1.1-0.3
		c-0.3,0-0.6,0.1-0.9,0.2c-0.3,0.1-0.5,0.3-0.7,0.5c-0.2,0.2-0.4,0.5-0.5,0.8c-0.1,0.3-0.2,0.6-0.2,1v0c0,0.3,0.1,0.7,0.2,1
		c0.1,0.3,0.3,0.6,0.5,0.8c0.2,0.2,0.5,0.4,0.7,0.5c0.3,0.1,0.6,0.2,0.9,0.2c0.4,0,0.8-0.1,1.1-0.3c0.3-0.2,0.6-0.4,0.8-0.7l0.6,0.6
		c-0.3,0.4-0.7,0.7-1.1,0.9C69.2,195,68.7,195.1,68.1,195.1"/>
	<path class="st2" d="M73.7,195.1c-0.3,0-0.6,0-0.9-0.1c-0.3-0.1-0.5-0.2-0.8-0.4c-0.2-0.2-0.4-0.4-0.5-0.6
		c-0.1-0.2-0.2-0.5-0.2-0.9v0c0-0.3,0.1-0.6,0.2-0.9c0.1-0.3,0.3-0.5,0.6-0.6c0.2-0.2,0.5-0.3,0.9-0.4c0.3-0.1,0.7-0.1,1.1-0.1
		c0.4,0,0.8,0,1.1,0.1c0.3,0,0.6,0.1,0.9,0.2v-0.2c0-0.6-0.2-1-0.5-1.3c-0.3-0.3-0.8-0.4-1.4-0.4c-0.4,0-0.7,0-1,0.1
		c-0.3,0.1-0.6,0.2-0.9,0.3l-0.3-0.8c0.3-0.2,0.7-0.3,1.1-0.4c0.4-0.1,0.8-0.1,1.2-0.1c0.9,0,1.6,0.2,2,0.7c0.4,0.4,0.7,1.1,0.7,1.9
		v3.9H76v-0.9c-0.2,0.3-0.5,0.5-0.9,0.8C74.7,195,74.3,195.1,73.7,195.1 M73.9,194.4c0.3,0,0.6,0,0.8-0.1c0.3-0.1,0.5-0.2,0.7-0.3
		c0.2-0.1,0.3-0.3,0.4-0.5c0.1-0.2,0.2-0.4,0.2-0.7v-0.6c-0.2-0.1-0.5-0.1-0.8-0.2c-0.3-0.1-0.6-0.1-1-0.1c-0.6,0-1,0.1-1.3,0.3
		c-0.3,0.2-0.5,0.5-0.5,0.9v0c0,0.2,0,0.4,0.1,0.5s0.2,0.3,0.3,0.4c0.1,0.1,0.3,0.2,0.5,0.2C73.5,194.3,73.7,194.4,73.9,194.4"/>
	<path class="st2" d="M80.6,195.1c-0.3,0-0.5,0-0.7-0.1c-0.2-0.1-0.4-0.2-0.6-0.3c-0.2-0.1-0.3-0.3-0.4-0.6
		c-0.1-0.2-0.1-0.5-0.1-0.8v-3.8H78v-0.8h0.9v-1.9h0.9v1.9h2v0.8h-2v3.7c0,0.4,0.1,0.7,0.3,0.8c0.2,0.2,0.4,0.2,0.8,0.2
		c0.2,0,0.3,0,0.5,0c0.1,0,0.3-0.1,0.5-0.2v0.8c-0.2,0.1-0.3,0.2-0.5,0.2C81.1,195.1,80.9,195.1,80.6,195.1"/>
	<path class="st2" d="M85.9,195.1c-0.5,0-0.9-0.1-1.3-0.3c-0.4-0.2-0.7-0.4-1-0.7c-0.3-0.3-0.5-0.6-0.7-1c-0.2-0.4-0.2-0.8-0.2-1.3
		v0c0-0.4,0.1-0.9,0.2-1.3c0.2-0.4,0.4-0.7,0.7-1c0.3-0.3,0.6-0.5,1-0.7c0.4-0.2,0.8-0.3,1.3-0.3c0.5,0,0.9,0.1,1.3,0.3
		c0.4,0.2,0.7,0.4,1,0.7c0.3,0.3,0.5,0.6,0.7,1c0.2,0.4,0.2,0.8,0.2,1.3v0c0,0.4-0.1,0.9-0.2,1.3c-0.2,0.4-0.4,0.7-0.7,1
		c-0.3,0.3-0.6,0.5-1,0.7C86.8,195.1,86.4,195.1,85.9,195.1 M86,194.3c0.3,0,0.7-0.1,0.9-0.2c0.3-0.1,0.5-0.3,0.7-0.5
		c0.2-0.2,0.4-0.5,0.5-0.8c0.1-0.3,0.2-0.6,0.2-0.9v0c0-0.3-0.1-0.7-0.2-1c-0.1-0.3-0.3-0.6-0.5-0.8c-0.2-0.2-0.5-0.4-0.7-0.5
		c-0.3-0.1-0.6-0.2-0.9-0.2c-0.3,0-0.7,0.1-0.9,0.2c-0.3,0.1-0.5,0.3-0.7,0.5c-0.2,0.2-0.4,0.5-0.5,0.8c-0.1,0.3-0.2,0.6-0.2,0.9v0
		c0,0.3,0.1,0.7,0.2,1c0.1,0.3,0.3,0.6,0.5,0.8c0.2,0.2,0.5,0.4,0.7,0.5C85.3,194.2,85.6,194.3,86,194.3"/>
	<path class="st2" d="M96.5,195.1c-0.4,0-0.7-0.1-1.1-0.2c-0.4-0.1-0.7-0.4-1-0.6c-0.3-0.3-0.5-0.6-0.7-1c-0.2-0.4-0.3-0.9-0.3-1.4
		v0c0-0.5,0.1-1,0.3-1.4c0.2-0.4,0.4-0.8,0.7-1c0.3-0.3,0.6-0.5,1-0.6c0.4-0.1,0.7-0.2,1.1-0.2c0.3,0,0.6,0,0.8,0.1
		c0.2,0.1,0.5,0.2,0.7,0.3c0.2,0.1,0.4,0.3,0.5,0.4c0.2,0.2,0.3,0.3,0.4,0.5v-3.8h0.9v8.9h-0.9v-1.3c-0.1,0.2-0.3,0.4-0.4,0.5
		c-0.2,0.2-0.3,0.3-0.5,0.5c-0.2,0.1-0.4,0.2-0.6,0.3C97,195.1,96.7,195.1,96.5,195.1 M96.6,194.3c0.3,0,0.6-0.1,0.8-0.2
		c0.3-0.1,0.5-0.3,0.7-0.5c0.2-0.2,0.4-0.5,0.5-0.8c0.1-0.3,0.2-0.6,0.2-1v0c0-0.4-0.1-0.7-0.2-1c-0.1-0.3-0.3-0.5-0.5-0.8
		c-0.2-0.2-0.5-0.4-0.7-0.5c-0.3-0.1-0.6-0.2-0.8-0.2c-0.3,0-0.6,0.1-0.9,0.2c-0.3,0.1-0.5,0.3-0.7,0.5c-0.2,0.2-0.4,0.5-0.5,0.8
		c-0.1,0.3-0.2,0.6-0.2,1v0c0,0.4,0.1,0.7,0.2,1c0.1,0.3,0.3,0.6,0.5,0.8c0.2,0.2,0.4,0.4,0.7,0.5S96.3,194.3,96.6,194.3"/>
	<path class="st2" d="M104.4,195.1c-0.5,0-0.9-0.1-1.3-0.3c-0.4-0.2-0.7-0.4-1-0.7c-0.3-0.3-0.5-0.6-0.7-1c-0.2-0.4-0.2-0.8-0.2-1.3
		v0c0-0.4,0.1-0.9,0.2-1.3c0.2-0.4,0.4-0.7,0.7-1c0.3-0.3,0.6-0.5,1-0.7c0.4-0.2,0.8-0.3,1.3-0.3c0.5,0,0.9,0.1,1.3,0.3
		c0.4,0.2,0.7,0.4,1,0.7c0.3,0.3,0.5,0.6,0.7,1c0.2,0.4,0.2,0.8,0.2,1.3v0c0,0.4-0.1,0.9-0.2,1.3c-0.2,0.4-0.4,0.7-0.7,1
		c-0.3,0.3-0.6,0.5-1,0.7C105.3,195.1,104.9,195.1,104.4,195.1 M104.4,194.3c0.3,0,0.7-0.1,0.9-0.2c0.3-0.1,0.5-0.3,0.7-0.5
		c0.2-0.2,0.4-0.5,0.5-0.8c0.1-0.3,0.2-0.6,0.2-0.9v0c0-0.3-0.1-0.7-0.2-1c-0.1-0.3-0.3-0.6-0.5-0.8c-0.2-0.2-0.5-0.4-0.7-0.5
		c-0.3-0.1-0.6-0.2-0.9-0.2c-0.3,0-0.7,0.1-0.9,0.2c-0.3,0.1-0.5,0.3-0.7,0.5c-0.2,0.2-0.4,0.5-0.5,0.8c-0.1,0.3-0.2,0.6-0.2,0.9v0
		c0,0.3,0.1,0.7,0.2,1c0.1,0.3,0.3,0.6,0.5,0.8c0.2,0.2,0.5,0.4,0.7,0.5C103.8,194.2,104.1,194.3,104.4,194.3"/>
	<path class="st2" d="M111.1,195.1c-0.5,0-0.9-0.1-1.4-0.3c-0.5-0.2-0.9-0.4-1.2-0.7l0.5-0.7c0.3,0.3,0.7,0.5,1.1,0.6
		c0.4,0.1,0.7,0.2,1.1,0.2c0.4,0,0.7-0.1,0.9-0.3c0.2-0.2,0.4-0.4,0.4-0.7v0c0-0.2,0-0.3-0.1-0.4c-0.1-0.1-0.2-0.2-0.3-0.3
		c-0.1-0.1-0.3-0.2-0.5-0.2c-0.2-0.1-0.4-0.1-0.6-0.2c-0.2-0.1-0.5-0.2-0.7-0.2c-0.2-0.1-0.5-0.2-0.7-0.3c-0.2-0.1-0.4-0.3-0.5-0.5
		c-0.1-0.2-0.2-0.4-0.2-0.7v0c0-0.3,0.1-0.5,0.2-0.7c0.1-0.2,0.3-0.4,0.4-0.6c0.2-0.2,0.4-0.3,0.7-0.4c0.3-0.1,0.5-0.1,0.9-0.1
		c0.4,0,0.8,0.1,1.2,0.2c0.4,0.1,0.8,0.3,1.1,0.5l-0.4,0.7c-0.3-0.2-0.6-0.3-0.9-0.4c-0.3-0.1-0.6-0.2-0.9-0.2
		c-0.4,0-0.7,0.1-0.9,0.3c-0.2,0.2-0.3,0.4-0.3,0.7v0c0,0.1,0,0.3,0.1,0.4c0.1,0.1,0.2,0.2,0.4,0.3c0.1,0.1,0.3,0.2,0.5,0.2
		c0.2,0.1,0.4,0.1,0.6,0.2c0.2,0.1,0.5,0.2,0.7,0.2c0.2,0.1,0.5,0.2,0.6,0.3c0.2,0.1,0.4,0.3,0.5,0.5c0.1,0.2,0.2,0.4,0.2,0.7v0
		c0,0.3-0.1,0.6-0.2,0.8c-0.1,0.2-0.3,0.4-0.5,0.6c-0.2,0.2-0.4,0.3-0.7,0.4S111.4,195.1,111.1,195.1"/>
	<path class="st2" d="M121.3,186.4h0.9l3.9,8.6h-1l-1-2.3h-4.6l-1,2.3h-1L121.3,186.4z M123.6,191.9l-1.9-4.4l-1.9,4.4H123.6z"/>
	<path class="st2" d="M129.3,195.1c-0.3,0-0.5,0-0.7-0.1c-0.2-0.1-0.4-0.2-0.6-0.3c-0.2-0.1-0.3-0.3-0.4-0.6
		c-0.1-0.2-0.1-0.5-0.1-0.8v-3.8h-0.9v-0.8h0.9v-1.9h0.9v1.9h2v0.8h-2v3.7c0,0.4,0.1,0.7,0.3,0.8c0.2,0.2,0.4,0.2,0.8,0.2
		c0.2,0,0.3,0,0.5,0c0.1,0,0.3-0.1,0.5-0.2v0.8c-0.2,0.1-0.3,0.2-0.5,0.2C129.7,195.1,129.5,195.1,129.3,195.1"/>
	<rect x="131.8" y="186.1" class="st2" width="0.9" height="8.9"/>
	<path class="st2" d="M135.1,192.2c0,0.3,0.1,0.6,0.2,0.9c0.1,0.3,0.3,0.5,0.5,0.7c0.2,0.2,0.4,0.3,0.7,0.4s0.5,0.1,0.8,0.1
		c0.4,0,0.8-0.1,1.1-0.2c0.3-0.2,0.6-0.4,0.9-0.6l0.6,0.5c-0.3,0.4-0.7,0.6-1.1,0.9c-0.4,0.2-0.9,0.3-1.5,0.3
		c-0.4,0-0.8-0.1-1.2-0.2c-0.4-0.2-0.7-0.4-1-0.7c-0.3-0.3-0.5-0.6-0.7-1c-0.2-0.4-0.2-0.9-0.2-1.3c0-0.5,0.1-0.9,0.2-1.3
		c0.1-0.4,0.4-0.8,0.6-1c0.3-0.3,0.6-0.5,1-0.7c0.4-0.2,0.8-0.3,1.2-0.3c0.5,0,0.9,0.1,1.2,0.3c0.4,0.2,0.7,0.4,0.9,0.7
		s0.4,0.7,0.6,1.1c0.1,0.4,0.2,0.8,0.2,1.3v0.1c0,0.1,0,0.1,0,0.2H135.1z M139.1,191.5c0-0.3-0.1-0.6-0.2-0.8
		c-0.1-0.3-0.2-0.5-0.4-0.7c-0.2-0.2-0.4-0.3-0.6-0.5c-0.2-0.1-0.5-0.2-0.8-0.2c-0.3,0-0.5,0.1-0.8,0.2c-0.2,0.1-0.4,0.3-0.6,0.4
		c-0.2,0.2-0.3,0.4-0.4,0.7c-0.1,0.3-0.2,0.5-0.2,0.8H139.1z"/>
	<path class="st2" d="M143.5,195.1c-0.3,0-0.5,0-0.7-0.1c-0.2-0.1-0.4-0.2-0.6-0.3c-0.2-0.1-0.3-0.3-0.4-0.6
		c-0.1-0.2-0.1-0.5-0.1-0.8v-3.8h-0.9v-0.8h0.9v-1.9h0.9v1.9h2v0.8h-2v3.7c0,0.4,0.1,0.7,0.3,0.8c0.2,0.2,0.4,0.2,0.8,0.2
		c0.2,0,0.3,0,0.5,0c0.1,0,0.3-0.1,0.5-0.2v0.8c-0.2,0.1-0.3,0.2-0.5,0.2C143.9,195.1,143.7,195.1,143.5,195.1"/>
	<path class="st2" d="M147.8,195.1c-0.3,0-0.6,0-0.9-0.1s-0.5-0.2-0.8-0.4c-0.2-0.2-0.4-0.4-0.5-0.6c-0.1-0.2-0.2-0.5-0.2-0.9v0
		c0-0.3,0.1-0.6,0.2-0.9s0.3-0.5,0.6-0.6c0.2-0.2,0.5-0.3,0.8-0.4c0.3-0.1,0.7-0.1,1.1-0.1c0.4,0,0.8,0,1.1,0.1
		c0.3,0,0.6,0.1,0.9,0.2v-0.2c0-0.6-0.2-1-0.5-1.3c-0.3-0.3-0.8-0.4-1.4-0.4c-0.4,0-0.7,0-1,0.1c-0.3,0.1-0.6,0.2-0.9,0.3l-0.3-0.8
		c0.3-0.2,0.7-0.3,1.1-0.4c0.4-0.1,0.8-0.1,1.2-0.1c0.9,0,1.6,0.2,2,0.7c0.4,0.4,0.7,1.1,0.7,1.9v3.9H150v-0.9
		c-0.2,0.3-0.5,0.5-0.9,0.8C148.8,195,148.3,195.1,147.8,195.1 M148,194.4c0.3,0,0.6,0,0.8-0.1c0.3-0.1,0.5-0.2,0.7-0.3
		c0.2-0.1,0.3-0.3,0.4-0.5c0.1-0.2,0.2-0.4,0.2-0.7v-0.6c-0.2-0.1-0.5-0.1-0.8-0.2c-0.3-0.1-0.6-0.1-1-0.1c-0.6,0-1,0.1-1.3,0.3
		c-0.3,0.2-0.5,0.5-0.5,0.9v0c0,0.2,0,0.4,0.1,0.5c0.1,0.2,0.2,0.3,0.3,0.4c0.1,0.1,0.3,0.2,0.5,0.2
		C147.6,194.3,147.8,194.4,148,194.4"/>
	<path class="st2" d="M154.7,195.1c-0.5,0-0.9-0.1-1.4-0.3s-0.9-0.4-1.2-0.7l0.5-0.7c0.3,0.3,0.7,0.5,1.1,0.6
		c0.4,0.1,0.7,0.2,1.1,0.2c0.4,0,0.7-0.1,0.9-0.3c0.2-0.2,0.4-0.4,0.4-0.7v0c0-0.2,0-0.3-0.1-0.4c-0.1-0.1-0.2-0.2-0.3-0.3
		c-0.1-0.1-0.3-0.2-0.5-0.2c-0.2-0.1-0.4-0.1-0.6-0.2c-0.2-0.1-0.5-0.2-0.7-0.2c-0.2-0.1-0.5-0.2-0.7-0.3s-0.4-0.3-0.5-0.5
		c-0.1-0.2-0.2-0.4-0.2-0.7v0c0-0.3,0.1-0.5,0.2-0.7c0.1-0.2,0.3-0.4,0.4-0.6c0.2-0.2,0.4-0.3,0.7-0.4c0.3-0.1,0.5-0.1,0.9-0.1
		c0.4,0,0.8,0.1,1.2,0.2s0.8,0.3,1.1,0.5l-0.4,0.7c-0.3-0.2-0.6-0.3-0.9-0.4c-0.3-0.1-0.6-0.2-0.9-0.2c-0.4,0-0.7,0.1-0.9,0.3
		s-0.3,0.4-0.3,0.7v0c0,0.1,0,0.3,0.1,0.4c0.1,0.1,0.2,0.2,0.4,0.3c0.1,0.1,0.3,0.2,0.5,0.2c0.2,0.1,0.4,0.1,0.6,0.2
		c0.2,0.1,0.5,0.2,0.7,0.2c0.2,0.1,0.5,0.2,0.6,0.3c0.2,0.1,0.3,0.3,0.5,0.5c0.1,0.2,0.2,0.4,0.2,0.7v0c0,0.3-0.1,0.6-0.2,0.8
		c-0.1,0.2-0.3,0.4-0.5,0.6s-0.4,0.3-0.7,0.4C155.3,195.1,155,195.1,154.7,195.1"/>
	<path class="st2" d="M161.7,186.5h3.2c0.5,0,0.9,0.1,1.3,0.2s0.7,0.3,1,0.5c0.3,0.2,0.5,0.5,0.6,0.8c0.2,0.3,0.2,0.7,0.2,1.1v0
		c0,0.5-0.1,0.9-0.3,1.2c-0.2,0.3-0.4,0.6-0.7,0.9c-0.3,0.2-0.7,0.4-1.1,0.5c-0.4,0.1-0.8,0.2-1.3,0.2h-2.1v3h-1V186.5z
		 M164.8,191.1c0.3,0,0.7,0,1-0.1c0.3-0.1,0.5-0.2,0.7-0.4s0.4-0.4,0.5-0.6c0.1-0.2,0.2-0.5,0.2-0.8v0c0-0.6-0.2-1.1-0.6-1.4
		c-0.4-0.3-1-0.5-1.7-0.5h-2.2v3.8H164.8z"/>
	<path class="st2" d="M169.3,188.7h0.9v1.6c0.1-0.3,0.3-0.5,0.4-0.7c0.2-0.2,0.4-0.4,0.6-0.6c0.2-0.2,0.5-0.3,0.7-0.4
		s0.5-0.1,0.8-0.1v1h-0.1c-0.3,0-0.7,0.1-1,0.2s-0.6,0.3-0.8,0.5c-0.2,0.2-0.4,0.5-0.5,0.9c-0.1,0.4-0.2,0.8-0.2,1.2v2.5h-0.9V188.7
		z"/>
	<path class="st2" d="M176.7,195.1c-0.5,0-0.9-0.1-1.3-0.3c-0.4-0.2-0.7-0.4-1-0.7c-0.3-0.3-0.5-0.6-0.7-1c-0.2-0.4-0.2-0.8-0.2-1.3
		v0c0-0.4,0.1-0.9,0.2-1.3c0.2-0.4,0.4-0.7,0.7-1c0.3-0.3,0.6-0.5,1-0.7c0.4-0.2,0.8-0.3,1.3-0.3c0.5,0,0.9,0.1,1.3,0.3
		c0.4,0.2,0.7,0.4,1,0.7c0.3,0.3,0.5,0.6,0.7,1c0.2,0.4,0.2,0.8,0.2,1.3v0c0,0.4-0.1,0.9-0.2,1.3c-0.2,0.4-0.4,0.7-0.7,1
		c-0.3,0.3-0.6,0.5-1,0.7C177.6,195.1,177.2,195.1,176.7,195.1 M176.7,194.3c0.3,0,0.7-0.1,0.9-0.2c0.3-0.1,0.5-0.3,0.7-0.5
		c0.2-0.2,0.4-0.5,0.5-0.8s0.2-0.6,0.2-0.9v0c0-0.3-0.1-0.7-0.2-1c-0.1-0.3-0.3-0.6-0.5-0.8c-0.2-0.2-0.5-0.4-0.7-0.5
		c-0.3-0.1-0.6-0.2-0.9-0.2c-0.3,0-0.7,0.1-0.9,0.2c-0.3,0.1-0.5,0.3-0.7,0.5c-0.2,0.2-0.4,0.5-0.5,0.8c-0.1,0.3-0.2,0.6-0.2,0.9v0
		c0,0.3,0.1,0.7,0.2,1c0.1,0.3,0.3,0.6,0.5,0.8c0.2,0.2,0.5,0.4,0.7,0.5S176.4,194.3,176.7,194.3"/>
	<path class="st2" d="M181.7,189.5h-0.9v-0.8h0.9v-0.5c0-0.7,0.2-1.3,0.5-1.6c0.3-0.3,0.8-0.5,1.3-0.5c0.2,0,0.4,0,0.6,0
		c0.2,0,0.3,0.1,0.5,0.1v0.8c-0.2,0-0.3-0.1-0.5-0.1s-0.3,0-0.4,0c-0.7,0-1.1,0.4-1.1,1.3v0.5h2v0.8h-2v5.5h-0.9V189.5z
		 M185.8,186.3h1.1v1h-1.1V186.3z M185.9,188.7h0.9v6.3h-0.9V188.7z"/>
	<path class="st2" d="M190.7,195.1c-0.5,0-0.9-0.1-1.4-0.3s-0.9-0.4-1.2-0.7l0.5-0.7c0.3,0.3,0.7,0.5,1.1,0.6
		c0.4,0.1,0.7,0.2,1.1,0.2c0.4,0,0.7-0.1,0.9-0.3c0.2-0.2,0.4-0.4,0.4-0.7v0c0-0.2,0-0.3-0.1-0.4c-0.1-0.1-0.2-0.2-0.3-0.3
		c-0.1-0.1-0.3-0.2-0.5-0.2c-0.2-0.1-0.4-0.1-0.6-0.2c-0.2-0.1-0.5-0.2-0.7-0.2c-0.2-0.1-0.5-0.2-0.7-0.3s-0.4-0.3-0.5-0.5
		c-0.1-0.2-0.2-0.4-0.2-0.7v0c0-0.3,0.1-0.5,0.2-0.7c0.1-0.2,0.3-0.4,0.4-0.6c0.2-0.2,0.4-0.3,0.7-0.4c0.3-0.1,0.5-0.1,0.9-0.1
		c0.4,0,0.8,0.1,1.2,0.2s0.8,0.3,1.1,0.5l-0.4,0.7c-0.3-0.2-0.6-0.3-0.9-0.4c-0.3-0.1-0.6-0.2-0.9-0.2c-0.4,0-0.7,0.1-0.9,0.3
		s-0.3,0.4-0.3,0.7v0c0,0.1,0,0.3,0.1,0.4c0.1,0.1,0.2,0.2,0.4,0.3c0.1,0.1,0.3,0.2,0.5,0.2c0.2,0.1,0.4,0.1,0.6,0.2
		c0.2,0.1,0.5,0.2,0.7,0.2c0.2,0.1,0.5,0.2,0.6,0.3c0.2,0.1,0.3,0.3,0.5,0.5c0.1,0.2,0.2,0.4,0.2,0.7v0c0,0.3-0.1,0.6-0.2,0.8
		c-0.1,0.2-0.3,0.4-0.5,0.6s-0.4,0.3-0.7,0.4C191.3,195.1,191,195.1,190.7,195.1"/>
	<path class="st2" d="M196.4,195.1c-0.5,0-0.9-0.1-1.4-0.3s-0.9-0.4-1.2-0.7l0.5-0.7c0.3,0.3,0.7,0.5,1.1,0.6
		c0.4,0.1,0.7,0.2,1.1,0.2c0.4,0,0.7-0.1,0.9-0.3c0.2-0.2,0.4-0.4,0.4-0.7v0c0-0.2,0-0.3-0.1-0.4c-0.1-0.1-0.2-0.2-0.3-0.3
		c-0.1-0.1-0.3-0.2-0.5-0.2c-0.2-0.1-0.4-0.1-0.6-0.2c-0.2-0.1-0.5-0.2-0.7-0.2c-0.2-0.1-0.5-0.2-0.7-0.3s-0.4-0.3-0.5-0.5
		c-0.1-0.2-0.2-0.4-0.2-0.7v0c0-0.3,0.1-0.5,0.2-0.7c0.1-0.2,0.3-0.4,0.4-0.6c0.2-0.2,0.4-0.3,0.7-0.4c0.3-0.1,0.5-0.1,0.9-0.1
		c0.4,0,0.8,0.1,1.2,0.2s0.8,0.3,1.1,0.5L198,190c-0.3-0.2-0.6-0.3-0.9-0.4c-0.3-0.1-0.6-0.2-0.9-0.2c-0.4,0-0.7,0.1-0.9,0.3
		s-0.3,0.4-0.3,0.7v0c0,0.1,0,0.3,0.1,0.4c0.1,0.1,0.2,0.2,0.4,0.3c0.1,0.1,0.3,0.2,0.5,0.2c0.2,0.1,0.4,0.1,0.6,0.2
		c0.2,0.1,0.5,0.2,0.7,0.2c0.2,0.1,0.5,0.2,0.6,0.3c0.2,0.1,0.3,0.3,0.5,0.5c0.1,0.2,0.2,0.4,0.2,0.7v0c0,0.3-0.1,0.6-0.2,0.8
		c-0.1,0.2-0.3,0.4-0.5,0.6s-0.4,0.3-0.7,0.4C197,195.1,196.7,195.1,196.4,195.1"/>
	<path class="st2" d="M200,186.3h1.1v1H200V186.3z M200.1,188.7h0.9v6.3h-0.9V188.7z"/>
	<path class="st2" d="M205.7,195.1c-0.5,0-0.9-0.1-1.3-0.3c-0.4-0.2-0.7-0.4-1-0.7c-0.3-0.3-0.5-0.6-0.7-1c-0.2-0.4-0.2-0.8-0.2-1.3
		v0c0-0.4,0.1-0.9,0.2-1.3c0.2-0.4,0.4-0.7,0.7-1c0.3-0.3,0.6-0.5,1-0.7c0.4-0.2,0.8-0.3,1.3-0.3c0.5,0,0.9,0.1,1.3,0.3
		c0.4,0.2,0.7,0.4,1,0.7c0.3,0.3,0.5,0.6,0.7,1c0.2,0.4,0.2,0.8,0.2,1.3v0c0,0.4-0.1,0.9-0.2,1.3c-0.2,0.4-0.4,0.7-0.7,1
		c-0.3,0.3-0.6,0.5-1,0.7C206.6,195.1,206.1,195.1,205.7,195.1 M205.7,194.3c0.3,0,0.7-0.1,0.9-0.2c0.3-0.1,0.5-0.3,0.7-0.5
		c0.2-0.2,0.4-0.5,0.5-0.8s0.2-0.6,0.2-0.9v0c0-0.3-0.1-0.7-0.2-1c-0.1-0.3-0.3-0.6-0.5-0.8c-0.2-0.2-0.5-0.4-0.7-0.5
		c-0.3-0.1-0.6-0.2-0.9-0.2c-0.3,0-0.7,0.1-0.9,0.2c-0.3,0.1-0.5,0.3-0.7,0.5c-0.2,0.2-0.4,0.5-0.5,0.8c-0.1,0.3-0.2,0.6-0.2,0.9v0
		c0,0.3,0.1,0.7,0.2,1c0.1,0.3,0.3,0.6,0.5,0.8c0.2,0.2,0.5,0.4,0.7,0.5S205.4,194.3,205.7,194.3"/>
	<path class="st2" d="M210.3,188.7h0.9v1.1c0.2-0.3,0.5-0.6,0.8-0.9c0.3-0.2,0.8-0.4,1.3-0.4c0.4,0,0.7,0.1,1,0.2
		c0.3,0.1,0.5,0.3,0.8,0.5c0.2,0.2,0.4,0.5,0.5,0.8c0.1,0.3,0.2,0.7,0.2,1v3.9h-0.9v-3.7c0-0.6-0.1-1-0.4-1.4
		c-0.3-0.3-0.7-0.5-1.3-0.5c-0.3,0-0.5,0-0.7,0.1c-0.2,0.1-0.4,0.2-0.6,0.4c-0.2,0.2-0.3,0.4-0.4,0.6c-0.1,0.2-0.1,0.5-0.1,0.8v3.6
		h-0.9V188.7z"/>
	<path class="st2" d="M219.3,195.1c-0.3,0-0.6,0-0.9-0.1s-0.5-0.2-0.8-0.4c-0.2-0.2-0.4-0.4-0.5-0.6c-0.1-0.2-0.2-0.5-0.2-0.9v0
		c0-0.3,0.1-0.6,0.2-0.9s0.3-0.5,0.6-0.6c0.2-0.2,0.5-0.3,0.8-0.4c0.3-0.1,0.7-0.1,1.1-0.1c0.4,0,0.8,0,1.1,0.1
		c0.3,0,0.6,0.1,0.9,0.2v-0.2c0-0.6-0.2-1-0.5-1.3c-0.3-0.3-0.8-0.4-1.4-0.4c-0.4,0-0.7,0-1,0.1c-0.3,0.1-0.6,0.2-0.9,0.3l-0.3-0.8
		c0.3-0.2,0.7-0.3,1.1-0.4c0.4-0.1,0.8-0.1,1.2-0.1c0.9,0,1.6,0.2,2,0.7c0.4,0.4,0.7,1.1,0.7,1.9v3.9h-0.9v-0.9
		c-0.2,0.3-0.5,0.5-0.9,0.8C220.3,195,219.8,195.1,219.3,195.1 M219.4,194.4c0.3,0,0.6,0,0.8-0.1c0.3-0.1,0.5-0.2,0.7-0.3
		c0.2-0.1,0.3-0.3,0.4-0.5c0.1-0.2,0.2-0.4,0.2-0.7v-0.6c-0.2-0.1-0.5-0.1-0.8-0.2c-0.3-0.1-0.6-0.1-1-0.1c-0.6,0-1,0.1-1.3,0.3
		c-0.3,0.2-0.5,0.5-0.5,0.9v0c0,0.2,0,0.4,0.1,0.5c0.1,0.2,0.2,0.3,0.3,0.4c0.1,0.1,0.3,0.2,0.5,0.2
		C219,194.3,219.2,194.4,219.4,194.4"/>
	<path class="st2" d="M224.1,186.3h1.1v1h-1.1V186.3z M224.1,188.7h0.9v6.3h-0.9V188.7z"/>
	<path class="st2" d="M229,195.1c-0.5,0-0.9-0.1-1.4-0.3s-0.9-0.4-1.2-0.7l0.5-0.7c0.3,0.3,0.7,0.5,1.1,0.6c0.4,0.1,0.7,0.2,1.1,0.2
		c0.4,0,0.7-0.1,0.9-0.3c0.2-0.2,0.4-0.4,0.4-0.7v0c0-0.2,0-0.3-0.1-0.4c-0.1-0.1-0.2-0.2-0.3-0.3c-0.1-0.1-0.3-0.2-0.5-0.2
		c-0.2-0.1-0.4-0.1-0.6-0.2c-0.2-0.1-0.5-0.2-0.7-0.2c-0.2-0.1-0.5-0.2-0.7-0.3s-0.4-0.3-0.5-0.5c-0.1-0.2-0.2-0.4-0.2-0.7v0
		c0-0.3,0.1-0.5,0.2-0.7c0.1-0.2,0.3-0.4,0.4-0.6c0.2-0.2,0.4-0.3,0.7-0.4c0.3-0.1,0.5-0.1,0.9-0.1c0.4,0,0.8,0.1,1.2,0.2
		s0.8,0.3,1.1,0.5l-0.4,0.7c-0.3-0.2-0.6-0.3-0.9-0.4c-0.3-0.1-0.6-0.2-0.9-0.2c-0.4,0-0.7,0.1-0.9,0.3s-0.3,0.4-0.3,0.7v0
		c0,0.1,0,0.3,0.1,0.4c0.1,0.1,0.2,0.2,0.4,0.3c0.1,0.1,0.3,0.2,0.5,0.2c0.2,0.1,0.4,0.1,0.6,0.2c0.2,0.1,0.5,0.2,0.7,0.2
		c0.2,0.1,0.5,0.2,0.6,0.3c0.2,0.1,0.3,0.3,0.5,0.5c0.1,0.2,0.2,0.4,0.2,0.7v0c0,0.3-0.1,0.6-0.2,0.8c-0.1,0.2-0.3,0.4-0.5,0.6
		s-0.4,0.3-0.7,0.4C229.6,195.1,229.3,195.1,229,195.1"/>
	<path class="st2" d="M30,205.5c-0.4,0-0.7-0.1-1.1-0.2c-0.4-0.1-0.7-0.4-1-0.6c-0.3-0.3-0.5-0.6-0.7-1c-0.2-0.4-0.3-0.9-0.3-1.4v0
		c0-0.5,0.1-1,0.3-1.4c0.2-0.4,0.4-0.8,0.7-1c0.3-0.3,0.6-0.5,1-0.6c0.4-0.1,0.7-0.2,1.1-0.2c0.3,0,0.6,0,0.8,0.1
		c0.2,0.1,0.5,0.2,0.7,0.3c0.2,0.1,0.4,0.3,0.5,0.4c0.2,0.2,0.3,0.3,0.4,0.5v-3.8h0.9v8.9h-0.9v-1.3c-0.1,0.2-0.3,0.4-0.4,0.5
		c-0.2,0.2-0.3,0.3-0.5,0.5c-0.2,0.1-0.4,0.2-0.6,0.3C30.5,205.4,30.3,205.5,30,205.5 M30.2,204.6c0.3,0,0.6-0.1,0.8-0.2
		c0.3-0.1,0.5-0.3,0.7-0.5c0.2-0.2,0.4-0.5,0.5-0.8c0.1-0.3,0.2-0.6,0.2-1v0c0-0.4-0.1-0.7-0.2-1c-0.1-0.3-0.3-0.6-0.5-0.8
		c-0.2-0.2-0.5-0.4-0.7-0.5c-0.3-0.1-0.6-0.2-0.8-0.2c-0.3,0-0.6,0.1-0.9,0.2c-0.3,0.1-0.5,0.3-0.7,0.5c-0.2,0.2-0.4,0.5-0.5,0.8
		c-0.1,0.3-0.2,0.6-0.2,1v0c0,0.4,0.1,0.7,0.2,1c0.1,0.3,0.3,0.6,0.5,0.8c0.2,0.2,0.4,0.4,0.7,0.5S29.9,204.6,30.2,204.6"/>
	<path class="st2" d="M35.6,202.6c0,0.3,0.1,0.6,0.2,0.9c0.1,0.3,0.3,0.5,0.5,0.7c0.2,0.2,0.4,0.3,0.7,0.4s0.5,0.1,0.8,0.1
		c0.4,0,0.8-0.1,1.1-0.2c0.3-0.2,0.6-0.4,0.9-0.6l0.6,0.5c-0.3,0.4-0.7,0.6-1.1,0.9c-0.4,0.2-0.9,0.3-1.5,0.3
		c-0.4,0-0.8-0.1-1.2-0.2c-0.4-0.2-0.7-0.4-1-0.7c-0.3-0.3-0.5-0.6-0.7-1c-0.2-0.4-0.2-0.9-0.2-1.3c0-0.5,0.1-0.9,0.2-1.3
		c0.1-0.4,0.4-0.8,0.6-1c0.3-0.3,0.6-0.5,1-0.7c0.4-0.2,0.8-0.3,1.2-0.3c0.5,0,0.9,0.1,1.2,0.3c0.4,0.2,0.7,0.4,0.9,0.7
		s0.4,0.7,0.6,1.1c0.1,0.4,0.2,0.8,0.2,1.3v0.1c0,0.1,0,0.1,0,0.2H35.6z M39.6,201.8c0-0.3-0.1-0.6-0.2-0.8
		c-0.1-0.3-0.2-0.5-0.4-0.7c-0.2-0.2-0.4-0.3-0.6-0.5c-0.2-0.1-0.5-0.2-0.8-0.2c-0.3,0-0.5,0.1-0.8,0.2c-0.2,0.1-0.4,0.3-0.6,0.4
		c-0.2,0.2-0.3,0.4-0.4,0.7c-0.1,0.3-0.2,0.5-0.2,0.8H39.6z"/>
	<polygon class="st2" points="45.3,196.8 51.4,196.8 51.4,197.7 46.3,197.7 46.3,200.8 50.9,200.8 50.9,201.6 46.3,201.6 
		46.3,205.3 45.3,205.3 	"/>
	<path class="st2" d="M55,205.5c-0.4,0-0.7-0.1-1-0.2c-0.3-0.1-0.5-0.3-0.8-0.5c-0.2-0.2-0.4-0.5-0.5-0.8c-0.1-0.3-0.2-0.6-0.2-1
		V199h0.9v3.7c0,0.6,0.2,1,0.4,1.4c0.3,0.3,0.7,0.5,1.3,0.5c0.3,0,0.5,0,0.7-0.1c0.2-0.1,0.4-0.2,0.6-0.4c0.2-0.2,0.3-0.4,0.4-0.6
		s0.1-0.5,0.1-0.8V199h0.9v6.3h-0.9v-1.1c-0.2,0.3-0.5,0.6-0.8,0.9C56,205.4,55.6,205.5,55,205.5"/>
	<path class="st2" d="M62,205.4c-0.3,0-0.5,0-0.7-0.1c-0.2-0.1-0.4-0.2-0.6-0.3c-0.2-0.1-0.3-0.3-0.4-0.6c-0.1-0.2-0.1-0.5-0.1-0.8
		v-3.8h-0.9V199h0.9v-1.9h0.9v1.9h2v0.8h-2v3.7c0,0.4,0.1,0.7,0.3,0.8c0.2,0.2,0.4,0.2,0.8,0.2c0.2,0,0.3,0,0.5,0
		c0.1,0,0.3-0.1,0.5-0.2v0.8c-0.2,0.1-0.3,0.2-0.5,0.2C62.4,205.4,62.2,205.4,62,205.4"/>
	<path class="st2" d="M65,202.6c0,0.3,0.1,0.6,0.2,0.9c0.1,0.3,0.3,0.5,0.5,0.7c0.2,0.2,0.4,0.3,0.7,0.4s0.5,0.1,0.8,0.1
		c0.4,0,0.8-0.1,1.1-0.2c0.3-0.2,0.6-0.4,0.9-0.6l0.6,0.5c-0.3,0.4-0.7,0.6-1.1,0.9c-0.4,0.2-0.9,0.3-1.5,0.3
		c-0.4,0-0.8-0.1-1.2-0.2c-0.4-0.2-0.7-0.4-1-0.7c-0.3-0.3-0.5-0.6-0.7-1c-0.2-0.4-0.2-0.9-0.2-1.3c0-0.5,0.1-0.9,0.2-1.3
		c0.2-0.4,0.4-0.8,0.6-1c0.3-0.3,0.6-0.5,1-0.7c0.4-0.2,0.8-0.3,1.2-0.3c0.5,0,0.9,0.1,1.2,0.3c0.4,0.2,0.7,0.4,0.9,0.7
		s0.4,0.7,0.6,1.1c0.1,0.4,0.2,0.8,0.2,1.3v0.1c0,0.1,0,0.1,0,0.2H65z M69,201.8c0-0.3-0.1-0.6-0.2-0.8c-0.1-0.3-0.2-0.5-0.4-0.7
		c-0.2-0.2-0.4-0.3-0.6-0.5c-0.2-0.1-0.5-0.2-0.8-0.2c-0.3,0-0.5,0.1-0.8,0.2c-0.2,0.1-0.4,0.3-0.6,0.4c-0.2,0.2-0.3,0.4-0.4,0.7
		c-0.1,0.3-0.2,0.5-0.2,0.8H69z"/>
	<path class="st2" d="M74.6,205.5c-0.3,0-0.6,0-0.8-0.1c-0.2-0.1-0.5-0.2-0.7-0.3c-0.2-0.1-0.4-0.3-0.5-0.4
		c-0.2-0.2-0.3-0.3-0.4-0.5v1.2h-0.9v-8.9h0.9v3.9c0.1-0.2,0.3-0.4,0.4-0.5c0.2-0.2,0.3-0.3,0.5-0.4c0.2-0.1,0.4-0.2,0.6-0.3
		c0.2-0.1,0.5-0.1,0.8-0.1c0.4,0,0.7,0.1,1.1,0.2c0.4,0.1,0.7,0.4,1,0.6c0.3,0.3,0.5,0.6,0.7,1c0.2,0.4,0.3,0.9,0.3,1.4v0
		c0,0.5-0.1,1-0.3,1.4c-0.2,0.4-0.4,0.7-0.7,1c-0.3,0.3-0.6,0.5-1,0.6C75.3,205.4,74.9,205.5,74.6,205.5 M74.4,204.6
		c0.3,0,0.6-0.1,0.9-0.2c0.3-0.1,0.5-0.3,0.7-0.5c0.2-0.2,0.4-0.5,0.5-0.8c0.1-0.3,0.2-0.6,0.2-1v0c0-0.4-0.1-0.7-0.2-1
		c-0.1-0.3-0.3-0.6-0.5-0.8c-0.2-0.2-0.4-0.4-0.7-0.5c-0.3-0.1-0.6-0.2-0.9-0.2c-0.3,0-0.6,0.1-0.8,0.2s-0.5,0.3-0.7,0.5
		c-0.2,0.2-0.4,0.5-0.5,0.8c-0.1,0.3-0.2,0.6-0.2,1v0c0,0.4,0.1,0.7,0.2,1c0.1,0.3,0.3,0.6,0.5,0.8c0.2,0.2,0.5,0.4,0.7,0.5
		C73.8,204.6,74.1,204.6,74.4,204.6"/>
	<path class="st2" d="M81.8,205.5c-0.5,0-0.9-0.1-1.3-0.3c-0.4-0.2-0.7-0.4-1-0.7c-0.3-0.3-0.5-0.6-0.7-1c-0.2-0.4-0.2-0.8-0.2-1.3
		v0c0-0.4,0.1-0.9,0.2-1.3c0.2-0.4,0.4-0.7,0.7-1c0.3-0.3,0.6-0.5,1-0.7c0.4-0.2,0.8-0.3,1.3-0.3c0.5,0,0.9,0.1,1.3,0.3
		c0.4,0.2,0.7,0.4,1,0.7c0.3,0.3,0.5,0.6,0.7,1c0.2,0.4,0.2,0.8,0.2,1.3v0c0,0.4-0.1,0.9-0.2,1.3c-0.2,0.4-0.4,0.7-0.7,1
		c-0.3,0.3-0.6,0.5-1,0.7C82.7,205.4,82.2,205.5,81.8,205.5 M81.8,204.6c0.3,0,0.7-0.1,0.9-0.2c0.3-0.1,0.5-0.3,0.7-0.5
		c0.2-0.2,0.4-0.5,0.5-0.8c0.1-0.3,0.2-0.6,0.2-0.9v0c0-0.3-0.1-0.7-0.2-1c-0.1-0.3-0.3-0.6-0.5-0.8c-0.2-0.2-0.5-0.4-0.7-0.5
		c-0.3-0.1-0.6-0.2-0.9-0.2c-0.3,0-0.7,0.1-0.9,0.2c-0.3,0.1-0.5,0.3-0.7,0.5c-0.2,0.2-0.4,0.5-0.5,0.8c-0.1,0.3-0.2,0.6-0.2,0.9v0
		c0,0.3,0.1,0.7,0.2,1c0.1,0.3,0.3,0.6,0.5,0.8c0.2,0.2,0.5,0.4,0.7,0.5C81.2,204.6,81.5,204.6,81.8,204.6"/>
	<rect x="86.5" y="196.4" class="st2" width="0.9" height="8.9"/>
	<path class="st2" d="M95.1,205.5c-0.4,0-0.7-0.1-1.1-0.2c-0.4-0.1-0.7-0.4-1-0.6c-0.3-0.3-0.5-0.6-0.7-1c-0.2-0.4-0.3-0.9-0.3-1.4
		v0c0-0.5,0.1-1,0.3-1.4c0.2-0.4,0.4-0.8,0.7-1c0.3-0.3,0.6-0.5,1-0.6c0.4-0.1,0.7-0.2,1.1-0.2c0.3,0,0.6,0,0.8,0.1
		c0.2,0.1,0.5,0.2,0.7,0.3c0.2,0.1,0.4,0.3,0.5,0.4c0.2,0.2,0.3,0.3,0.4,0.5v-3.8h0.9v8.9h-0.9v-1.3c-0.1,0.2-0.3,0.4-0.4,0.5
		c-0.2,0.2-0.3,0.3-0.5,0.5c-0.2,0.1-0.4,0.2-0.6,0.3C95.7,205.4,95.4,205.5,95.1,205.5 M95.3,204.6c0.3,0,0.6-0.1,0.8-0.2
		c0.3-0.1,0.5-0.3,0.7-0.5c0.2-0.2,0.4-0.5,0.5-0.8c0.1-0.3,0.2-0.6,0.2-1v0c0-0.4-0.1-0.7-0.2-1c-0.1-0.3-0.3-0.6-0.5-0.8
		c-0.2-0.2-0.5-0.4-0.7-0.5c-0.3-0.1-0.6-0.2-0.8-0.2c-0.3,0-0.6,0.1-0.9,0.2c-0.3,0.1-0.5,0.3-0.7,0.5c-0.2,0.2-0.4,0.5-0.5,0.8
		c-0.1,0.3-0.2,0.6-0.2,1v0c0,0.4,0.1,0.7,0.2,1c0.1,0.3,0.3,0.6,0.5,0.8c0.2,0.2,0.4,0.4,0.7,0.5S95,204.6,95.3,204.6"/>
	<path class="st2" d="M103.1,205.5c-0.5,0-0.9-0.1-1.3-0.3c-0.4-0.2-0.7-0.4-1-0.7c-0.3-0.3-0.5-0.6-0.7-1c-0.2-0.4-0.2-0.8-0.2-1.3
		v0c0-0.4,0.1-0.9,0.2-1.3c0.2-0.4,0.4-0.7,0.7-1c0.3-0.3,0.6-0.5,1-0.7c0.4-0.2,0.8-0.3,1.3-0.3c0.5,0,0.9,0.1,1.3,0.3
		c0.4,0.2,0.7,0.4,1,0.7c0.3,0.3,0.5,0.6,0.7,1c0.2,0.4,0.2,0.8,0.2,1.3v0c0,0.4-0.1,0.9-0.2,1.3c-0.2,0.4-0.4,0.7-0.7,1
		c-0.3,0.3-0.6,0.5-1,0.7C104,205.4,103.5,205.5,103.1,205.5 M103.1,204.6c0.3,0,0.7-0.1,0.9-0.2c0.3-0.1,0.5-0.3,0.7-0.5
		c0.2-0.2,0.4-0.5,0.5-0.8c0.1-0.3,0.2-0.6,0.2-0.9v0c0-0.3-0.1-0.7-0.2-1c-0.1-0.3-0.3-0.6-0.5-0.8c-0.2-0.2-0.5-0.4-0.7-0.5
		c-0.3-0.1-0.6-0.2-0.9-0.2c-0.3,0-0.7,0.1-0.9,0.2c-0.3,0.1-0.5,0.3-0.7,0.5c-0.2,0.2-0.4,0.5-0.5,0.8c-0.1,0.3-0.2,0.6-0.2,0.9v0
		c0,0.3,0.1,0.7,0.2,1c0.1,0.3,0.3,0.6,0.5,0.8c0.2,0.2,0.5,0.4,0.7,0.5C102.4,204.6,102.8,204.6,103.1,204.6"/>
	<polygon class="st2" points="111.1,196.8 112.1,196.8 115.2,201.5 118.3,196.8 119.2,196.8 119.2,205.3 118.3,205.3 118.3,198.4 
		115.2,203 115.1,203 112,198.4 112,205.3 111.1,205.3 	"/>
	<path class="st2" d="M123.4,205.5c-0.4,0-0.7-0.1-1-0.2c-0.3-0.1-0.5-0.3-0.8-0.5c-0.2-0.2-0.4-0.5-0.5-0.8c-0.1-0.3-0.2-0.6-0.2-1
		V199h0.9v3.7c0,0.6,0.2,1,0.4,1.4c0.3,0.3,0.7,0.5,1.3,0.5c0.3,0,0.5,0,0.7-0.1c0.2-0.1,0.4-0.2,0.6-0.4c0.2-0.2,0.3-0.4,0.4-0.6
		s0.1-0.5,0.1-0.8V199h0.9v6.3h-0.9v-1.1c-0.2,0.3-0.5,0.6-0.8,0.9C124.4,205.4,124,205.5,123.4,205.5"/>
	<path class="st2" d="M128.2,199h0.9v1.1c0.2-0.3,0.5-0.6,0.8-0.9c0.3-0.2,0.8-0.4,1.3-0.4c0.4,0,0.7,0.1,1,0.2
		c0.3,0.1,0.5,0.3,0.8,0.5c0.2,0.2,0.4,0.5,0.5,0.8c0.1,0.3,0.2,0.7,0.2,1v3.9h-0.9v-3.7c0-0.6-0.1-1-0.4-1.4
		c-0.3-0.3-0.7-0.5-1.3-0.5c-0.3,0-0.5,0-0.7,0.1c-0.2,0.1-0.4,0.2-0.6,0.4c-0.2,0.2-0.3,0.4-0.4,0.6c-0.1,0.2-0.1,0.5-0.1,0.8v3.6
		h-0.9V199z"/>
	<path class="st2" d="M135.4,196.6h1.1v1h-1.1V196.6z M135.4,199h0.9v6.3h-0.9V199z"/>
	<path class="st2" d="M141,205.5c-0.5,0-0.9-0.1-1.3-0.3c-0.4-0.2-0.7-0.4-1-0.7c-0.3-0.3-0.5-0.6-0.7-1c-0.2-0.4-0.2-0.8-0.2-1.3v0
		c0-0.4,0.1-0.9,0.2-1.3c0.2-0.4,0.4-0.7,0.7-1c0.3-0.3,0.6-0.5,1-0.7c0.4-0.2,0.8-0.3,1.3-0.3c0.3,0,0.6,0,0.8,0.1
		c0.2,0.1,0.5,0.1,0.7,0.2c0.2,0.1,0.4,0.2,0.6,0.4s0.3,0.3,0.5,0.4l-0.6,0.7c-0.3-0.3-0.5-0.5-0.8-0.7c-0.3-0.2-0.7-0.3-1.1-0.3
		c-0.3,0-0.6,0.1-0.9,0.2c-0.3,0.1-0.5,0.3-0.7,0.5c-0.2,0.2-0.4,0.5-0.5,0.8c-0.1,0.3-0.2,0.6-0.2,1v0c0,0.3,0.1,0.7,0.2,1
		c0.1,0.3,0.3,0.6,0.5,0.8c0.2,0.2,0.4,0.4,0.7,0.5c0.3,0.1,0.6,0.2,0.9,0.2c0.4,0,0.8-0.1,1.1-0.3c0.3-0.2,0.6-0.4,0.8-0.7l0.6,0.6
		c-0.3,0.4-0.7,0.7-1.1,0.9C142.1,205.4,141.6,205.5,141,205.5"/>
	<path class="st2" d="M144.8,199h0.9v6.3h-0.9V199z M146.1,196.3l1,0.5l-1.4,1.3h-0.8L146.1,196.3z"/>
	<path class="st2" d="M147.6,199h0.9v1.3c0.1-0.2,0.3-0.4,0.4-0.5c0.2-0.2,0.3-0.3,0.5-0.4s0.4-0.2,0.6-0.3c0.2-0.1,0.5-0.1,0.8-0.1
		c0.4,0,0.7,0.1,1.1,0.2c0.4,0.1,0.7,0.4,1,0.6c0.3,0.3,0.5,0.6,0.7,1c0.2,0.4,0.3,0.9,0.3,1.4v0c0,0.5-0.1,1-0.3,1.4
		c-0.2,0.4-0.4,0.7-0.7,1c-0.3,0.3-0.6,0.5-1,0.6c-0.4,0.2-0.7,0.2-1.1,0.2c-0.3,0-0.6,0-0.8-0.1c-0.2-0.1-0.5-0.2-0.7-0.3
		s-0.4-0.3-0.5-0.4s-0.3-0.3-0.4-0.5v3.2h-0.9V199z M150.7,204.6c0.3,0,0.6-0.1,0.9-0.2c0.3-0.1,0.5-0.3,0.7-0.5s0.4-0.5,0.5-0.8
		c0.1-0.3,0.2-0.6,0.2-1v0c0-0.4-0.1-0.7-0.2-1c-0.1-0.3-0.3-0.6-0.5-0.8c-0.2-0.2-0.4-0.4-0.7-0.5c-0.3-0.1-0.6-0.2-0.9-0.2
		c-0.3,0-0.6,0.1-0.8,0.2c-0.3,0.1-0.5,0.3-0.7,0.5c-0.2,0.2-0.4,0.5-0.5,0.8c-0.1,0.3-0.2,0.6-0.2,1v0c0,0.4,0.1,0.7,0.2,1
		c0.1,0.3,0.3,0.6,0.5,0.8c0.2,0.2,0.5,0.4,0.7,0.5C150.2,204.6,150.4,204.6,150.7,204.6"/>
	<path class="st2" d="M155.3,196.6h1.1v1h-1.1V196.6z M155.4,199h0.9v6.3h-0.9V199z"/>
	<path class="st2" d="M161,205.5c-0.5,0-0.9-0.1-1.3-0.3c-0.4-0.2-0.7-0.4-1-0.7c-0.3-0.3-0.5-0.6-0.7-1c-0.2-0.4-0.2-0.8-0.2-1.3v0
		c0-0.4,0.1-0.9,0.2-1.3c0.2-0.4,0.4-0.7,0.7-1c0.3-0.3,0.6-0.5,1-0.7c0.4-0.2,0.8-0.3,1.3-0.3c0.5,0,0.9,0.1,1.3,0.3
		c0.4,0.2,0.7,0.4,1,0.7c0.3,0.3,0.5,0.6,0.7,1c0.2,0.4,0.2,0.8,0.2,1.3v0c0,0.4-0.1,0.9-0.2,1.3c-0.2,0.4-0.4,0.7-0.7,1
		c-0.3,0.3-0.6,0.5-1,0.7C161.9,205.4,161.4,205.5,161,205.5 M161,204.6c0.3,0,0.7-0.1,0.9-0.2c0.3-0.1,0.5-0.3,0.7-0.5
		c0.2-0.2,0.4-0.5,0.5-0.8c0.1-0.3,0.2-0.6,0.2-0.9v0c0-0.3-0.1-0.7-0.2-1c-0.1-0.3-0.3-0.6-0.5-0.8c-0.2-0.2-0.5-0.4-0.7-0.5
		c-0.3-0.1-0.6-0.2-0.9-0.2c-0.3,0-0.7,0.1-0.9,0.2c-0.3,0.1-0.5,0.3-0.7,0.5c-0.2,0.2-0.4,0.5-0.5,0.8c-0.1,0.3-0.2,0.6-0.2,0.9v0
		c0,0.3,0.1,0.7,0.2,1c0.1,0.3,0.3,0.6,0.5,0.8c0.2,0.2,0.5,0.4,0.7,0.5S160.7,204.6,161,204.6"/>
	<path class="st2" d="M171.5,205.5c-0.4,0-0.7-0.1-1.1-0.2c-0.4-0.1-0.7-0.4-1-0.6c-0.3-0.3-0.5-0.6-0.7-1c-0.2-0.4-0.3-0.9-0.3-1.4
		v0c0-0.5,0.1-1,0.3-1.4c0.2-0.4,0.4-0.8,0.7-1s0.6-0.5,1-0.6c0.4-0.1,0.7-0.2,1.1-0.2c0.3,0,0.6,0,0.8,0.1c0.2,0.1,0.5,0.2,0.7,0.3
		s0.4,0.3,0.5,0.4c0.2,0.2,0.3,0.3,0.4,0.5v-3.8h0.9v8.9h-0.9v-1.3c-0.1,0.2-0.3,0.4-0.4,0.5c-0.2,0.2-0.3,0.3-0.5,0.5
		s-0.4,0.2-0.6,0.3C172,205.4,171.8,205.5,171.5,205.5 M171.7,204.6c0.3,0,0.6-0.1,0.8-0.2c0.3-0.1,0.5-0.3,0.7-0.5
		c0.2-0.2,0.4-0.5,0.5-0.8c0.1-0.3,0.2-0.6,0.2-1v0c0-0.4-0.1-0.7-0.2-1c-0.1-0.3-0.3-0.6-0.5-0.8c-0.2-0.2-0.5-0.4-0.7-0.5
		c-0.3-0.1-0.6-0.2-0.8-0.2c-0.3,0-0.6,0.1-0.9,0.2c-0.3,0.1-0.5,0.3-0.7,0.5s-0.4,0.5-0.5,0.8c-0.1,0.3-0.2,0.6-0.2,1v0
		c0,0.4,0.1,0.7,0.2,1c0.1,0.3,0.3,0.6,0.5,0.8s0.4,0.4,0.7,0.5C171.1,204.6,171.4,204.6,171.7,204.6"/>
	<path class="st2" d="M177.1,202.6c0,0.3,0.1,0.6,0.2,0.9c0.1,0.3,0.3,0.5,0.5,0.7c0.2,0.2,0.4,0.3,0.7,0.4s0.5,0.1,0.8,0.1
		c0.4,0,0.8-0.1,1.1-0.2c0.3-0.2,0.6-0.4,0.9-0.6l0.6,0.5c-0.3,0.4-0.7,0.6-1.1,0.9c-0.4,0.2-0.9,0.3-1.5,0.3
		c-0.4,0-0.8-0.1-1.2-0.2c-0.4-0.2-0.7-0.4-1-0.7c-0.3-0.3-0.5-0.6-0.7-1c-0.2-0.4-0.2-0.9-0.2-1.3c0-0.5,0.1-0.9,0.2-1.3
		s0.4-0.8,0.6-1c0.3-0.3,0.6-0.5,1-0.7c0.4-0.2,0.8-0.3,1.2-0.3c0.5,0,0.9,0.1,1.2,0.3c0.4,0.2,0.7,0.4,0.9,0.7
		c0.3,0.3,0.4,0.7,0.6,1.1c0.1,0.4,0.2,0.8,0.2,1.3v0.1c0,0.1,0,0.1,0,0.2H177.1z M181.1,201.8c0-0.3-0.1-0.6-0.2-0.8
		c-0.1-0.3-0.2-0.5-0.4-0.7c-0.2-0.2-0.4-0.3-0.6-0.5c-0.2-0.1-0.5-0.2-0.8-0.2c-0.3,0-0.5,0.1-0.8,0.2c-0.2,0.1-0.4,0.3-0.6,0.4
		c-0.2,0.2-0.3,0.4-0.4,0.7c-0.1,0.3-0.2,0.5-0.2,0.8H181.1z"/>
	<path class="st2" d="M189.7,205.5c-0.7,0-1.3-0.1-1.9-0.3s-1.1-0.6-1.6-1l0.6-0.7c0.4,0.4,0.9,0.7,1.3,0.9s1,0.3,1.6,0.3
		c0.6,0,1-0.1,1.4-0.4c0.3-0.3,0.5-0.6,0.5-1v0c0-0.2,0-0.4-0.1-0.5c-0.1-0.2-0.2-0.3-0.3-0.4s-0.4-0.2-0.7-0.4
		c-0.3-0.1-0.7-0.2-1.1-0.3c-0.5-0.1-0.9-0.2-1.3-0.4c-0.4-0.1-0.7-0.3-0.9-0.5c-0.2-0.2-0.4-0.4-0.5-0.7c-0.1-0.3-0.2-0.6-0.2-0.9
		v0c0-0.3,0.1-0.6,0.2-0.9c0.1-0.3,0.3-0.5,0.6-0.7c0.3-0.2,0.5-0.4,0.9-0.5c0.3-0.1,0.7-0.2,1.1-0.2c0.6,0,1.2,0.1,1.6,0.3
		c0.5,0.2,0.9,0.4,1.4,0.8l-0.6,0.7c-0.4-0.3-0.8-0.6-1.2-0.7c-0.4-0.1-0.8-0.2-1.3-0.2c-0.6,0-1,0.1-1.3,0.4
		c-0.3,0.3-0.5,0.6-0.5,1v0c0,0.2,0,0.4,0.1,0.5c0.1,0.2,0.2,0.3,0.4,0.4c0.2,0.1,0.4,0.3,0.7,0.4c0.3,0.1,0.7,0.2,1.2,0.3
		c0.9,0.2,1.6,0.5,2.1,0.9c0.4,0.4,0.7,0.9,0.7,1.5v0c0,0.4-0.1,0.7-0.2,1c-0.1,0.3-0.3,0.6-0.6,0.8c-0.3,0.2-0.6,0.4-0.9,0.5
		C190.5,205.4,190.2,205.5,189.7,205.5"/>
	<path class="st2" d="M195.9,205.5c-0.3,0-0.6,0-0.9-0.1c-0.3-0.1-0.5-0.2-0.8-0.4c-0.2-0.2-0.4-0.4-0.5-0.6
		c-0.1-0.2-0.2-0.5-0.2-0.9v0c0-0.3,0.1-0.6,0.2-0.9s0.3-0.5,0.6-0.6c0.2-0.2,0.5-0.3,0.8-0.4c0.3-0.1,0.7-0.1,1.1-0.1
		c0.4,0,0.8,0,1.1,0.1c0.3,0,0.6,0.1,0.9,0.2v-0.2c0-0.6-0.2-1-0.5-1.3c-0.3-0.3-0.8-0.4-1.4-0.4c-0.4,0-0.7,0-1,0.1
		c-0.3,0.1-0.6,0.2-0.9,0.3l-0.3-0.8c0.3-0.2,0.7-0.3,1.1-0.4c0.4-0.1,0.8-0.1,1.2-0.1c0.9,0,1.6,0.2,2,0.7c0.4,0.4,0.7,1.1,0.7,1.9
		v3.9h-0.9v-0.9c-0.2,0.3-0.5,0.5-0.9,0.8S196.5,205.5,195.9,205.5 M196.1,204.7c0.3,0,0.6,0,0.8-0.1c0.3-0.1,0.5-0.2,0.7-0.3
		c0.2-0.1,0.3-0.3,0.4-0.5c0.1-0.2,0.2-0.4,0.2-0.7v-0.6c-0.2-0.1-0.5-0.1-0.8-0.2c-0.3-0.1-0.6-0.1-1-0.1c-0.6,0-1,0.1-1.3,0.3
		c-0.3,0.2-0.5,0.5-0.5,0.9v0c0,0.2,0,0.4,0.1,0.5c0.1,0.2,0.2,0.3,0.3,0.4c0.1,0.1,0.3,0.2,0.5,0.2
		C195.7,204.7,195.9,204.7,196.1,204.7 M194.6,198c0.1-0.5,0.3-0.8,0.4-1c0.2-0.2,0.4-0.3,0.7-0.3c0.1,0,0.3,0,0.4,0.1
		c0.1,0.1,0.3,0.1,0.4,0.2c0.1,0.1,0.3,0.1,0.4,0.2c0.1,0,0.2,0.1,0.4,0.1c0.2,0,0.3,0,0.4-0.1c0.1-0.1,0.2-0.2,0.3-0.5l0.6,0.2
		c-0.1,0.5-0.3,0.8-0.4,1s-0.4,0.3-0.7,0.3c-0.1,0-0.3,0-0.4-0.1c-0.1,0-0.3-0.1-0.4-0.2c-0.1-0.1-0.3-0.1-0.4-0.2
		c-0.1-0.1-0.2-0.1-0.4-0.1c-0.2,0-0.3,0-0.4,0.1c-0.1,0.1-0.2,0.2-0.3,0.5L194.6,198z"/>
	<path class="st2" d="M203.6,205.5c-0.5,0-0.9-0.1-1.3-0.3c-0.4-0.2-0.7-0.4-1-0.7c-0.3-0.3-0.5-0.6-0.7-1c-0.2-0.4-0.2-0.8-0.2-1.3
		v0c0-0.4,0.1-0.9,0.2-1.3c0.2-0.4,0.4-0.7,0.7-1c0.3-0.3,0.6-0.5,1-0.7c0.4-0.2,0.8-0.3,1.3-0.3c0.5,0,0.9,0.1,1.3,0.3
		c0.4,0.2,0.7,0.4,1,0.7c0.3,0.3,0.5,0.6,0.7,1c0.2,0.4,0.2,0.8,0.2,1.3v0c0,0.4-0.1,0.9-0.2,1.3c-0.2,0.4-0.4,0.7-0.7,1
		c-0.3,0.3-0.6,0.5-1,0.7C204.5,205.4,204.1,205.5,203.6,205.5 M203.6,204.6c0.3,0,0.7-0.1,0.9-0.2c0.3-0.1,0.5-0.3,0.7-0.5
		c0.2-0.2,0.4-0.5,0.5-0.8s0.2-0.6,0.2-0.9v0c0-0.3-0.1-0.7-0.2-1c-0.1-0.3-0.3-0.6-0.5-0.8c-0.2-0.2-0.5-0.4-0.7-0.5
		c-0.3-0.1-0.6-0.2-0.9-0.2c-0.3,0-0.7,0.1-0.9,0.2c-0.3,0.1-0.5,0.3-0.7,0.5c-0.2,0.2-0.4,0.5-0.5,0.8c-0.1,0.3-0.2,0.6-0.2,0.9v0
		c0,0.3,0.1,0.7,0.2,1c0.1,0.3,0.3,0.6,0.5,0.8c0.2,0.2,0.5,0.4,0.7,0.5S203.3,204.6,203.6,204.6"/>
	<path class="st2" d="M211.6,196.8h3.2c0.5,0,0.9,0.1,1.3,0.2c0.4,0.1,0.7,0.3,1,0.5c0.3,0.2,0.5,0.5,0.6,0.8
		c0.2,0.3,0.2,0.7,0.2,1.1v0c0,0.5-0.1,0.9-0.3,1.2c-0.2,0.3-0.4,0.6-0.7,0.9c-0.3,0.2-0.7,0.4-1.1,0.5c-0.4,0.1-0.8,0.2-1.3,0.2
		h-2.1v3h-1V196.8z M214.7,201.5c0.3,0,0.7,0,1-0.1c0.3-0.1,0.5-0.2,0.7-0.4s0.4-0.4,0.5-0.6c0.1-0.2,0.2-0.5,0.2-0.8v0
		c0-0.6-0.2-1.1-0.6-1.4c-0.4-0.3-1-0.5-1.7-0.5h-2.2v3.8H214.7z"/>
	<path class="st2" d="M221.1,205.5c-0.3,0-0.6,0-0.9-0.1s-0.5-0.2-0.8-0.4c-0.2-0.2-0.4-0.4-0.5-0.6c-0.1-0.2-0.2-0.5-0.2-0.9v0
		c0-0.3,0.1-0.6,0.2-0.9s0.3-0.5,0.6-0.6c0.2-0.2,0.5-0.3,0.8-0.4c0.3-0.1,0.7-0.1,1.1-0.1c0.4,0,0.8,0,1.1,0.1
		c0.3,0,0.6,0.1,0.9,0.2v-0.2c0-0.6-0.2-1-0.5-1.3c-0.3-0.3-0.8-0.4-1.4-0.4c-0.4,0-0.7,0-1,0.1c-0.3,0.1-0.6,0.2-0.9,0.3l-0.3-0.8
		c0.3-0.2,0.7-0.3,1.1-0.4c0.4-0.1,0.8-0.1,1.2-0.1c0.9,0,1.6,0.2,2,0.7c0.4,0.4,0.7,1.1,0.7,1.9v3.9h-0.9v-0.9
		c-0.2,0.3-0.5,0.5-0.9,0.8C222.1,205.4,221.6,205.5,221.1,205.5 M221.3,204.7c0.3,0,0.6,0,0.8-0.1c0.3-0.1,0.5-0.2,0.7-0.3
		c0.2-0.1,0.3-0.3,0.4-0.5c0.1-0.2,0.2-0.4,0.2-0.7v-0.6c-0.2-0.1-0.5-0.1-0.8-0.2c-0.3-0.1-0.6-0.1-1-0.1c-0.6,0-1,0.1-1.3,0.3
		c-0.3,0.2-0.5,0.5-0.5,0.9v0c0,0.2,0,0.4,0.1,0.5c0.1,0.2,0.2,0.3,0.3,0.4c0.1,0.1,0.3,0.2,0.5,0.2
		C220.9,204.7,221.1,204.7,221.3,204.7"/>
	<path class="st2" d="M228.2,205.5c-0.4,0-0.7-0.1-1-0.2c-0.3-0.1-0.5-0.3-0.8-0.5c-0.2-0.2-0.4-0.5-0.5-0.8c-0.1-0.3-0.2-0.6-0.2-1
		V199h0.9v3.7c0,0.6,0.1,1,0.4,1.4c0.3,0.3,0.7,0.5,1.3,0.5c0.3,0,0.5,0,0.7-0.1c0.2-0.1,0.4-0.2,0.6-0.4c0.2-0.2,0.3-0.4,0.4-0.6
		c0.1-0.2,0.1-0.5,0.1-0.8V199h0.9v6.3h-0.9v-1.1c-0.2,0.3-0.5,0.6-0.8,0.9C229.2,205.4,228.7,205.5,228.2,205.5"/>
	<rect x="233.1" y="196.4" class="st2" width="0.9" height="8.9"/>
	<path class="st2" d="M238.7,205.5c-0.5,0-0.9-0.1-1.3-0.3c-0.4-0.2-0.7-0.4-1-0.7c-0.3-0.3-0.5-0.6-0.7-1c-0.2-0.4-0.2-0.8-0.2-1.3
		v0c0-0.4,0.1-0.9,0.2-1.3c0.2-0.4,0.4-0.7,0.7-1c0.3-0.3,0.6-0.5,1-0.7c0.4-0.2,0.8-0.3,1.3-0.3c0.5,0,0.9,0.1,1.3,0.3
		c0.4,0.2,0.7,0.4,1,0.7c0.3,0.3,0.5,0.6,0.7,1c0.2,0.4,0.2,0.8,0.2,1.3v0c0,0.4-0.1,0.9-0.2,1.3c-0.2,0.4-0.4,0.7-0.7,1
		c-0.3,0.3-0.6,0.5-1,0.7C239.6,205.4,239.2,205.5,238.7,205.5 M238.7,204.6c0.3,0,0.7-0.1,0.9-0.2c0.3-0.1,0.5-0.3,0.7-0.5
		c0.2-0.2,0.4-0.5,0.5-0.8s0.2-0.6,0.2-0.9v0c0-0.3-0.1-0.7-0.2-1c-0.1-0.3-0.3-0.6-0.5-0.8c-0.2-0.2-0.5-0.4-0.7-0.5
		c-0.3-0.1-0.6-0.2-0.9-0.2c-0.3,0-0.7,0.1-0.9,0.2c-0.3,0.1-0.5,0.3-0.7,0.5c-0.2,0.2-0.4,0.5-0.5,0.8c-0.1,0.3-0.2,0.6-0.2,0.9v0
		c0,0.3,0.1,0.7,0.2,1c0.1,0.3,0.3,0.6,0.5,0.8c0.2,0.2,0.5,0.4,0.7,0.5S238.4,204.6,238.7,204.6"/>
</g>
</svg>
